<svg width="0" height="0" version="1.1" xmlns="http://www.w3.org/2000/svg" xmlns:xlink="http://www.w3.org/1999/xlink">
<defs>
<symbol id="icon-professional-development" viewBox="437 -437 1024 1024">
    <title>Professional Development Icon</title>
    <path  d="M1266.5-403.7h-635c-43.8,0-79.5,35.6-79.5,79.5v724.4c0,43.8,35.6,79.5,79.5,79.5h70.8v61.8
    c0,4.8,2.7,9.1,7,11.2c4.3,2.1,9.4,1.5,13.1-1.4l63.3-50.1l63.3,50.1c2.2,1.8,5,2.7,7.7,2.7c1.8,0,3.7-0.4,5.4-1.2
    c4.3-2.1,7-6.4,7-11.2v-61.8h397.4c43.8,0,79.5-35.6,79.5-79.5v-724.4C1345.9-368.1,1310.3-403.7,1266.5-403.7z M851.5,346.5
    c-0.4,0.2-0.8,0.4-1.2,0.6c-17.1,10.3-36.4,16.4-56.1,17.8c0,0,0,0,0,0c-1.3,0.1-2.5,0.1-3.8,0.2c-0.2,0-0.5,0-0.7,0
    c-1.3,0-2.6,0.1-4,0.1c-1.3,0-2.7,0-4-0.1c-0.2,0-0.5,0-0.7,0c-1.3,0-2.5-0.1-3.8-0.2c0,0,0,0,0,0c-19.7-1.4-38.9-7.4-56.1-17.8
    c-0.4-0.2-0.8-0.4-1.2-0.6c-35.7-22.1-59.5-61.6-59.5-106.6c0-69.1,56.2-125.3,125.3-125.3S911,170.8,911,239.9
    C911,284.9,887.2,324.4,851.5,346.5z M793.4,475.4c-4.5-3.6-10.9-3.6-15.4,0l-50.9,40.3V378.2c18,7.7,37.8,11.9,58.6,11.9
    c20.8,0,40.6-4.2,58.6-11.9v137.5L793.4,475.4z M1306.2,400.1c0,21.9-17.8,39.7-39.7,39.7H869.1v-75.1c40.2-27,66.8-72.8,66.8-124.8
    c0-82.8-67.4-150.1-150.1-150.1s-150.1,67.4-150.1,150.1c0,52,26.5,97.8,66.8,124.8v75.1h-70.8c-21.9,0-39.7-17.8-39.7-39.7v-724.4
    c0-21.9,17.8-39.7,39.7-39.7h635c21.9,0,39.7,17.8,39.7,39.7V400.1z"/>
</symbol>
<symbol id="icon-training-admin" viewBox="437 -437 1024 1024">
    <title>Admin Training Icon</title>
    <path d="M1215.7,125.4h11.1v-31h-149.2V22.6L964.1-43.9v-38.2c6.3-1.1,15.4-0.6,26,5.7c20.9,12.4,41,4.6,41,4.6v-47.2
        c0,0-20.1,7.7-41-4.6c-10.7-6.3-19.7-6.8-26-5.7v-0.1c0,0,0-0.1,0-0.1c-6,1-9.5,3.4-9.5,3.4s-0.6,0.3-1.6,0.8v81.4L839.6,22.6v71.8
        H690.3v31h11.1V305h-25v46.3H899l0-84.6c2.2-48.6,39.9-59,59.6-59c19.7,0,59.5,8.1,59.6,59v84.6h222.5V305h-25V125.4z"/>
    <path d="M1295.1-384.1h-126v-1.4c0-19.4-15.8-35.2-35.2-35.2H764.1c-19.4,0-35.2,15.8-35.2,35.2v1.4h-126
        c-47.8,0-86.6,38.9-86.6,86.6v789.6c0,47.8,38.9,86.6,86.6,86.6h692.1c47.8,0,86.6-38.9,86.6-86.6v-789.6
        C1381.7-345.2,1342.8-384.1,1295.1-384.1z M756-385.4c0-4.4,3.7-8.1,8.1-8.1h369.8c4.4,0,8.1,3.7,8.1,8.1v40.1
        c0,4.4-3.7,8.1-8.1,8.1H764.1c-4.4,0-8.1-3.7-8.1-8.1V-385.4z M1338.4,492.1c0,23.9-19.4,43.3-43.3,43.3H602.9
        c-23.9,0-43.3-19.4-43.3-43.3v-789.6c0-23.9,19.4-43.3,43.3-43.3h126.3c2.2,17.3,17,30.7,34.9,30.7h369.8
        c17.9,0,32.7-13.4,34.9-30.7h126.3c23.9,0,43.3,19.4,43.3,43.3V492.1z"/>
</symbol>
<symbol id="icon-training-instructor" viewBox="437 -437 1024 1024">
    <title>Instructor Training Icon</title>
    <path class="st0" d="M921.4-24.8C921.4-24.8,921.4-24.8,921.4-24.8c1.5,0.3,3,0.6,4.5,1.1c6.1,2.1,32.1,8.7,32.4,8.8
        c3.9-3.1,5.5-27.6,3.7-45.3c-3.5-34.1-20.8-57.9-55.5-68.6c-14.7-4.5-27.8-14.2-43.9-22.7c-10.2,18.5-10.4,40.1-5.5,62.4
        C864.7-54.7,888.4-36,921.4-24.8z"/>
    <path class="st0" d="M983.6,3.8c-7.4,2.8-33.2,7.5-38.6,7.5c-5.1,0-34.9-8.3-44.8-12.7C863.4-17.6,830-10.8,801,15.1
        c-35.2,31.4-50.5,72.5-47.3,119c4.2,60.6,27.4,114.8,64.5,162.4c27,34.7,63.7,43.8,104.2,26.2c17.6-7.7,32.5-7.7,50.1,0
        c40.4,17.5,77.5,8.8,103.8-26.7c17.2-23.3,31.4-49.4,43.3-76c19.7-44,28.9-90.2,15.6-138.3C1114.4,5.9,1055.8-23.9,983.6,3.8z"/>
    <path class="st0" d="M1295.1-384.1h-126v-1.4c0-19.4-15.8-35.2-35.2-35.2H764.1c-19.4,0-35.2,15.8-35.2,35.2v1.4h-126
        c-47.8,0-86.6,38.9-86.6,86.6v789.6c0,47.8,38.9,86.6,86.6,86.6h692.1c47.8,0,86.6-38.9,86.6-86.6v-789.6
        C1381.7-345.2,1342.8-384.1,1295.1-384.1z M756-385.4c0-4.4,3.7-8.1,8.1-8.1h369.8c4.4,0,8.1,3.7,8.1,8.1v40.1
        c0,4.4-3.7,8.1-8.1,8.1H764.1c-4.4,0-8.1-3.7-8.1-8.1V-385.4z M1338.4,492.1c0,23.9-19.4,43.3-43.3,43.3H602.9
        c-23.9,0-43.3-19.4-43.3-43.3v-789.6c0-23.9,19.4-43.3,43.3-43.3h126.3c2.2,17.3,17,30.7,34.9,30.7h369.8
        c17.9,0,32.7-13.4,34.9-30.7h126.3c23.9,0,43.3,19.4,43.3,43.3V492.1z"/>
</symbol>
<symbol id="icon-training-student" viewBox="437 -437 1024 1024">
    <title>Student Training Icon</title>
    <path d="M1295.1-384.1h-126v-1.4c0-19.4-15.8-35.2-35.2-35.2H764.1c-19.4,0-35.2,15.8-35.2,35.2v1.4h-126
    c-47.8,0-86.6,38.9-86.6,86.6v789.6c0,47.8,38.9,86.6,86.6,86.6h692.1c47.8,0,86.6-38.9,86.6-86.6v-789.6
    C1381.7-345.2,1342.8-384.1,1295.1-384.1z M756-385.4c0-4.4,3.7-8.1,8.1-8.1h369.8c4.4,0,8.1,3.7,8.1,8.1v40.1
    c0,4.4-3.7,8.1-8.1,8.1H764.1c-4.4,0-8.1-3.7-8.1-8.1V-385.4z M1338.4,492.1c0,23.9-19.4,43.3-43.3,43.3H602.9
    c-23.9,0-43.3-19.4-43.3-43.3v-789.6c0-23.9,19.4-43.3,43.3-43.3h126.3c2.2,17.3,17,30.7,34.9,30.7h369.8
    c17.9,0,32.7-13.4,34.9-30.7h126.3c23.9,0,43.3,19.4,43.3,43.3V492.1z"/>
    <path d="M934-26.9c-73-33.7-165.6-54-267.1-54l-0.5,325.2c80,0,209.8,16.8,267.6,44.7V-26.9z"/>
    <path d="M954.6-26.9v315.8c57.8-27.9,197-44.7,277.1-44.7l-9.9-325.2C1120.1-80.9,1027.5-60.7,954.6-26.9z"/>
</symbol>
<symbol id="icon-integrations" viewBox="437 -437 1024 1024">
    <title>Integrations Icon</title>
    <path d="M850.7,469.1c-102.3,0-195.9,0-217.1,0c-22.5,0-39.2-5.7-51.1-17.4c-11.9-11.6-17.9-28.7-18-50.7
    c0-4.1,0-7.8,0-11.2c-0.2-1.2-0.3-2.4-0.3-3.7c0-16.1,0-32.3,0-48.4c0-33.3-0.1-67.8,0.1-101.7c0.1-16.3,0.3-54.4,36.4-72.2
    c15-7.4,30.4-8.6,45.8-3.5c13.1,4.3,24.2,12.4,33.4,19.7c16,12.8,32.2,17.7,49.7,15c18-2.8,33.1-13.1,42.5-29.1
    c11.1-18.9,12.8-42.7,4.5-65.4c-6.2-16.8-17.7-29.5-32.5-35.7c-14.5-6.1-31.2-5.5-47,1.7c-6.4,2.9-12.9,7.6-19.8,12.6
    c-2.6,1.9-5.3,3.9-8.1,5.8c-21.4,14.7-45.3,18-65.7,9.1c-20.2-8.9-33.9-28.5-37.4-53.8c-1.1-7.8-1.6-16.2-1.7-26.4
    c0,0,0-0.1,0-0.1l0.3-89.3c0-9.6,0-15.4,0-20.2c0-8.4,0-13.5,0.1-30.6c0.3-40.2,23.4-63.5,63.3-63.8c29.1-0.2,58.7-0.2,87.3-0.2
    c21.1,0,42.8,0,64.3,0c9.7,0,16.9-0.5,23.4-1.6c9.9-1.7,17.2-6.4,20.4-13.3c3.3-7,2.3-15.7-2.9-24.5c-1.7-2.9-4.2-6.1-6.8-9.4
    c-1.7-2.2-3.5-4.4-5.3-6.9c-15.2-21.1-22.6-46.3-20.8-70.9c1.8-25.2,13.1-48.1,31.7-64.5c19.8-17.4,46.2-27.1,74.5-27.1
    c0,0,0.1,0,0.1,0c28.3,0,54.7,9.6,74.4,27c38.4,34,43.2,90.9,11.3,135.2c-1.8,2.5-3.6,4.8-5.4,7.1c-3.1,4-6,7.7-7.8,11.2
    c-4.4,8.2-5.1,16.4-1.9,23c3.1,6.6,9.9,11.2,19,12.9c8,1.5,16.8,1.8,24.4,1.8c29.7,0.1,60,0.1,89.2,0.1c19.8,0,39.5,0,59.3,0
    c15,0,36.5,1.8,51.2,16.7c14.6,14.8,16.3,36.5,16.3,51.5c0,19.4,0,38.7,0,58.1c0,28.7,0,58.3,0.1,87.4c0,8.3,0.4,15,1.3,21
    c1.6,11.7,6.7,20,14.3,23.3c7.6,3.3,17.7,1.4,27.5-5.5c2.4-1.7,4.8-3.4,7.4-5.2c8.2-5.9,16.6-12,26.6-16.6
    c25.9-11.8,53.8-12.5,78.5-2.2c25,10.5,44.3,31.3,54.3,58.5c12.4,33.8,9.6,69.8-7.6,98.9c-15.5,26.3-40.5,43.3-70.3,48
    c-28.6,4.4-55.6-3.4-80.3-23.2c-19.5-15.7-27.8-16.2-37.1-11.6c-10.6,5.3-14.3,14.6-14.4,37.1c-0.2,33.8-0.2,68.2-0.1,101.4
    c0,16.2,0,32.3,0,48.5c0,18-1.9,40.7-17,55.9c-15.1,15.3-37.6,17.3-55.5,17.3C1119.8,469.1,978.4,469.1,850.7,469.1z M603.5,298.6
    c0.3,1.3,0.4,2.6,0.4,3.9c0,17.9,0,29,0,37.8c0,17.3,0,26,0.1,60.5c0.1,22.4,6.7,28.8,29.8,28.9c47.7,0.1,460.9,0,517.7,0
    c14.6,0,23.9-1.9,27.5-5.6c3.7-3.8,5.6-13.3,5.6-28.3c0-16.1,0-32.3,0-48.4c0-33.3-0.1-67.8,0.1-101.7
    c0.1-16.3,0.3-54.4,36.4-72.2c15-7.4,30.4-8.6,45.8-3.5c13.1,4.3,24.2,12.4,33.4,19.7c16,12.8,32.2,17.7,49.7,15
    c18-2.8,33.1-13.1,42.5-29.1c11.1-18.9,12.8-42.7,4.5-65.4c-6.2-16.8-17.7-29.5-32.5-35.7c-14.5-6.1-31.2-5.5-47,1.7
    c-6.4,2.9-12.9,7.6-19.8,12.6c-2.6,1.9-5.3,3.9-8.1,5.8c-21.4,14.7-45.3,18-65.7,9.1c-20.2-8.9-33.9-28.5-37.4-53.9
    c-1.1-7.8-1.6-16.2-1.7-26.4c-0.1-29.2-0.1-58.9-0.1-87.5c0-19.3,0-38.7,0-58c0-15.6-2.7-21.6-5-23.9c-3.2-3.2-11.2-4.9-23.3-4.9
    c-19.7,0-39.5,0-59.2,0c-29.3,0-59.6,0-89.4-0.1c-9.4,0-20.5-0.4-31.7-2.5c-21.4-4.1-38.6-16.7-47.1-34.6
    c-8.6-17.9-7.6-39.2,2.7-58.5c3.4-6.5,7.7-12,11.5-16.8c1.6-2.1,3.1-4,4.5-5.9c9.8-13.7,14.6-29.6,13.4-44.8
    c-1.2-14.9-7.7-28.1-18.9-38c-25.7-22.8-71-22.7-96.8,0.1c-22.9,20.2-25,55.1-5,82.8c1.3,1.8,2.7,3.6,4.3,5.6
    c3.2,4.1,6.8,8.7,9.9,14c11.7,20,13.3,42.3,4.5,61c-8.8,18.7-26.8,31.6-49.6,35.4c-11.2,1.9-22.4,2.1-29.8,2.2
    c-21.5,0.1-43.3,0.1-64.4,0c-28.5,0-58,0-87,0.2c-18.2,0.1-24.1,6.1-24.2,24.6c-0.1,16.9-0.1,21.9-0.1,30.2c0,4.8,0,10.6,0,20.4
    l-0.3,89.3c0,8.3,0.4,14.9,1.3,20.9c1.6,11.7,6.7,20,14.3,23.3c7.6,3.3,17.7,1.4,27.5-5.5c2.4-1.7,4.8-3.4,7.4-5.3
    c8.2-5.9,16.6-12,26.6-16.6c25.9-11.8,53.8-12.5,78.5-2.2c25,10.5,44.3,31.3,54.3,58.5c12.4,33.8,9.6,69.8-7.6,98.9
    c-15.5,26.3-40.5,43.3-70.3,48c-28.6,4.4-55.6-3.4-80.3-23.2C635.6,195,627.4,194.4,618,199c-10.6,5.3-14.3,14.6-14.4,37.1
    C603.5,256.8,603.5,277.8,603.5,298.6z"/>
</symbol>
<symbol id="icon-system-status" viewBox="437 -437 1024 1024">
    <title>System Status Icon</title>
    <path class="st0" d="M1020.5,326.4c-1.1,0-2.2-0.1-3.3-0.3c-7.1-1.2-13-6-15.5-12.8L851.1-85L708.9,119.9c-3.8,5.4-10,8.7-16.6,8.7
        H542.8c-11.1,0-20.2-9-20.2-20.2s9-20.2,20.2-20.2h139l158.1-227.7c4.3-6.1,11.6-9.4,19-8.5c7.4,0.9,13.7,5.9,16.4,12.9
        l151.9,401.8l142-171.2c3.8-4.6,9.5-7.3,15.5-7.3h164.4c11.1,0,20.2,9,20.2,20.2s-9,20.2-20.2,20.2h-154.9l-158.1,190.5
        C1032.2,323.7,1026.5,326.4,1020.5,326.4z"/>
</symbol>
<symbol id="icon-system-requirements" viewBox="437 -437 1024 1024">
    <title>System Requirements Icon</title>
    <path d="M1001.9,478.7H895.4c-20.9,0-38.8-15-42.5-35.6l-17-95.8c-23.2-9.6-44.8-21.9-64.4-36.7l-93.6,32.2
    c-19.5,6.7-41.1-1.4-51.4-19.2l-54.1-93.8c-10.1-17.5-6.6-40.1,8.5-53.7l75.2-67.7c-1.5-12-2.2-23-2.2-33.5
    c0-10.5,0.7-21.5,2.2-33.5l-75.2-67.7c-15.1-13.6-18.6-36.1-8.5-53.7l54.2-93.9c10.2-17.7,31.7-25.8,51-19.4l95.1,31.6
    c19.8-14.8,41.5-27,64.8-36.5l15.6-94.6c3.4-20.9,21.4-36.1,42.6-36.1h106.3c21.6,0,39.9,16.1,42.8,37.5l12.2,91.7
    c26.6,10.5,51.4,24.7,73.9,42.4l88.2-34.4c20-7.8,42.3,0,53.1,18.6l53,91.7c10.9,18.8,6,42.9-11.4,56l-73,55.1
    c2.3,14.9,3.5,30.1,3.5,45.1c0,11-0.8,22.5-2.3,34.9l75.1,66.2c15.4,13.5,19.1,36.2,8.8,54l-53.7,92.9
    c-10.7,18.6-33.1,26.4-53.1,18.6l-88.1-34.4c-22.5,17.7-47.3,31.9-73.9,42.4l-12.2,91.8C1041.9,462.6,1023.5,478.7,1001.9,478.7z
     M895.5,435.4h106.3l13.9-104.6c1.1-8.1,6.7-15,14.5-17.6c30.4-10.4,58.2-26.3,82.6-47.3c6.1-5.2,14.5-6.7,22-3.7l99.8,39
    l53.5-92.7l-83.8-73.8c-5.6-4.9-8.2-12.3-7.1-19.7c2.4-14.7,3.5-27.8,3.5-40c0-16.7-1.7-33.6-5-50.1c-1.7-8.2,1.5-16.6,8.2-21.6
    l83.5-63l-52.8-91.5l-99.9,39c-7.5,2.9-15.9,1.5-22-3.7c-24.4-21-52.2-36.9-82.6-47.3c-7.8-2.7-13.4-9.5-14.5-17.6l-13.9-104.6
    H895.7l-17.6,106.7c-1.3,7.7-6.6,14.2-14,16.9c-27.1,9.7-51.9,23.7-73.6,41.3c-5.7,4.7-13.5,6.1-20.5,3.7l-106-35.3l-54.1,93.7
    L693.5,17c5.4,4.9,8,12.2,6.9,19.4c-2.3,14.6-3.3,26.8-3.3,38.6c0,11.8,1,24,3.3,38.6c1.1,7.2-1.5,14.5-6.9,19.4l-83.6,75.3
    l54,93.6l104.6-36c7.1-2.4,15-1,20.8,3.8c21.5,17.7,46.1,31.7,73.2,41.6c7.2,2.7,12.5,9,13.9,16.5L895.5,435.4z"/>
    <path d="M949,200.7c-69.3,0-125.7-56.4-125.7-125.7c0-69.3,56.4-125.7,125.7-125.7c69.3,0,125.7,56.4,125.7,125.7
    C1074.7,144.3,1018.3,200.7,949,200.7z M949-7.4c-45.4,0-82.4,36.9-82.4,82.4c0,45.4,36.9,82.4,82.4,82.4
    c45.4,0,82.4-36.9,82.4-82.4C1031.4,29.6,994.4-7.4,949-7.4z"/>
</symbol>
<symbol id="icon-menu" viewBox="0 0 1024 1024">
    <title>Menu Icon</title>
    <path d="M981,923.343c0,4.781-3.876,8.657-8.657,8.657H50.657c-4.781,0-8.657-3.876-8.657-8.657V788.657
    c0-4.781,3.876-8.657,8.657-8.657h921.686c4.781,0,8.657,3.876,8.657,8.657V923.343z"/>
    <path d="M981,580.343c0,4.781-3.876,8.657-8.657,8.657H50.657c-4.781,0-8.657-3.876-8.657-8.657V445.657
    c0-4.781,3.876-8.657,8.657-8.657h921.686c4.781,0,8.657,3.876,8.657,8.657V580.343z"/>
    <path d="M981,237.343c0,4.781-3.876,8.657-8.657,8.657H50.657c-4.781,0-8.657-3.876-8.657-8.657V102.657
    C42,97.876,45.876,94,50.657,94h921.686c4.781,0,8.657,3.876,8.657,8.657V237.343z"/>
</symbol>
<symbol id="icon-download" viewBox="112 -312 1024 1024">
    <title>Download Icon</title>
    <path d="M928.125,480.714c-10.907,0-19.749,8.842-19.749,19.749v41.706H339.983v-41.706
    c0-10.907-8.842-19.749-19.75-19.749h-0.358c-10.907,0-19.75,8.842-19.75,19.749c0,1.287,0.123,2.546,0.358,3.765v57.69
    c0,10.907,8.842,19.749,19.75,19.749h607.892c10.907,0,19.749-8.842,19.749-19.749v-61.455
    C947.875,489.555,939.032,480.714,928.125,480.714z"/>
    <path d="M621.6,420.018c3.856,3.856,8.91,5.784,13.965,5.784s10.108-1.928,13.965-5.784l181.467-181.466
    c7.713-7.713,7.713-20.217,0-27.93s-20.219-7.714-27.93,0L655.315,358.374v-520.291c0-10.907-8.842-19.75-19.749-19.75
    s-19.75,8.842-19.75,19.75v520.29L468.064,210.622c-7.713-7.713-20.217-7.713-27.93,0s-7.713,20.217,0,27.93L621.6,420.018z"/>
</symbol>
<symbol id="icon-rubric" viewBox="0 0 1024 1024">
    <title>Rubric Icon</title>
    <path d="M995.993,911H25.623c-11.997,0-21.724-9.727-21.724-21.724V113.724
    C3.898,101.727,13.625,92,25.623,92h296.832c6.884,0,13.355,3.257,17.449,8.783l38.622,52.104h535.916
    c56.941,0,103.275,50.598,103.275,112.801v623.587C1017.717,901.273,1007.99,911,995.993,911z M47.347,867.551h926.921V265.688
    c0-38.24-26.837-69.352-59.827-69.352H367.59c-6.884,0-13.355-3.257-17.449-8.783l-38.622-52.104H47.347V867.551z"/>
    <path d="M605.076,347.869h81.952c5.727,0,10.37,4.643,10.37,10.37v81.37
    c0,5.727-4.643,10.37-10.37,10.37h-81.952c-5.727,0-10.37-4.643-10.37-10.37v-81.37
    C594.706,352.512,599.349,347.869,605.076,347.869z"/>
    <path d="M471.024,347.869h81.952c5.727,0,10.37,4.643,10.37,10.37v81.37
    c0,5.727-4.643,10.37-10.37,10.37h-81.952c-5.727,0-10.37-4.643-10.37-10.37v-81.37
    C460.654,352.512,465.297,347.869,471.024,347.869z"/>
    <path d="M605.076,480.945h81.952c5.727,0,10.37,4.643,10.37,10.37v81.37
    c0,5.727-4.643,10.37-10.37,10.37h-81.952c-5.727,0-10.37-4.643-10.37-10.37v-81.37
    C594.706,485.588,599.349,480.945,605.076,480.945z"/>
    <path d="M471.024,480.945h81.952c5.727,0,10.37,4.643,10.37,10.37v81.37
    c0,5.727-4.643,10.37-10.37,10.37h-81.952c-5.727,0-10.37-4.643-10.37-10.37v-81.37
    C460.654,485.588,465.297,480.945,471.024,480.945z"/>
    <path d="M336.972,480.945h81.952c5.727,0,10.37,4.643,10.37,10.37v81.37
    c0,5.727-4.643,10.37-10.37,10.37h-81.952c-5.727,0-10.37-4.643-10.37-10.37v-81.37
    C326.602,485.588,331.245,480.945,336.972,480.945z"/>
    <path d="M605.076,614.022h81.952c5.727,0,10.37,4.643,10.37,10.37v81.37
    c0,5.727-4.643,10.37-10.37,10.37h-81.952c-5.727,0-10.37-4.643-10.37-10.37v-81.37
    C594.706,618.664,599.349,614.022,605.076,614.022z"/>
    <path d="M471.024,614.022h81.952c5.727,0,10.37,4.643,10.37,10.37v81.37
    c0,5.727-4.643,10.37-10.37,10.37h-81.952c-5.727,0-10.37-4.643-10.37-10.37v-81.37
    C460.654,618.664,465.297,614.022,471.024,614.022z"/>
    <path d="M336.972,614.022h81.952c5.727,0,10.37,4.643,10.37,10.37v81.37
    c0,5.727-4.643,10.37-10.37,10.37h-81.952c-5.727,0-10.37-4.643-10.37-10.37v-81.37
    C326.602,618.664,331.245,614.022,336.972,614.022z"/>
</symbol>
<symbol id="icon-prompt" viewBox="112 -312 1024 1024">
    <title>Prompt Icon</title>
    <path d="M770.913,279.555c0,18.773-15.355,34.134-34.131,34.134l-47.321,0.356l14.182,62.917
    c1.316,5.408-5.442,10.115-11.13,7.527c-1.338-0.609-90.504-70.8-90.504-70.8H497.355c-18.776,0-34.131-15.361-34.131-34.134
    V125.098c0-18.773,15.355-34.131,34.131-34.131h239.427c18.776,0,34.131,15.358,34.131,34.131L770.913,279.555L770.913,279.555z"
    />
    <path d="M1065.079,572.273H182.921c-10.907,0-19.75-8.842-19.75-19.749v-705.046
    c0-10.907,8.842-19.75,19.75-19.75h269.85c6.255,0,12.141,2.963,15.866,7.988l35.107,47.358h487.2
    c51.769,0,93.885,46.003,93.885,102.55v566.899C1084.828,563.431,1075.987,572.273,1065.079,572.273z M202.671,532.775h842.66
    v-547.15c0-34.766-24.397-63.051-54.387-63.051H493.8c-6.255,0-12.141-2.963-15.865-7.988l-35.107-47.358H202.671V532.775z"/>
</symbol>
<symbol id="icon-qm-set" viewBox="112 -312 1024 1024">
    <title>QuickMark Set Icon</title>
    <path d="M1065.08,572.273H182.921c-10.907,0-19.75-8.842-19.75-19.749v-705.046c0-10.907,8.842-19.75,19.75-19.75
    H452.77c6.255,0,12.141,2.963,15.866,7.988l35.107,47.359h487.201c51.769,0,93.885,46.003,93.885,102.549v566.899
    C1084.829,563.432,1075.987,572.273,1065.08,572.273z M202.67,532.775h842.66v-547.15c0-34.766-24.397-63.05-54.387-63.05H493.799
    c-6.255,0-12.14-2.963-15.865-7.988l-35.108-47.359H202.67V532.775z"/>
    <path d="M743.701,76.363H414.499c-4.797,0-8.685,3.889-8.685,8.685v68.154c0,4.797,3.889,8.685,8.685,8.685
    h329.202c4.797,0,8.685-3.889,8.685-8.685V85.049C752.386,80.252,748.497,76.363,743.701,76.363L743.701,76.363z"/>
    <path d="M865.296,197.7H536.094c-4.797,0-8.685,3.889-8.685,8.685v68.154c0,4.797,3.889,8.685,8.685,8.685h329.202
    c4.797,0,8.685-3.889,8.685-8.685v-68.154C873.981,201.589,870.092,197.7,865.296,197.7L865.296,197.7z"/>
    <path d="M656.847,319.037H414.499c-4.797,0-8.685,3.889-8.685,8.685v68.154c0,4.797,3.888,8.685,8.685,8.685
    h242.348c4.797,0,8.685-3.889,8.685-8.685v-68.154C665.533,322.925,661.644,319.037,656.847,319.037L656.847,319.037z"/>
</symbol>
<symbol id="icon-lesson-plan" viewBox="112 -312 1024 1024">
    <title>Lesson Plan Icon</title>
    <path d="M990.945-116.927H503.744l-35.107-47.358c-3.725-5.025-9.611-7.988-15.866-7.988h-269.85
    c-10.907,0-19.75,8.842-19.75,19.75v705.046c0,10.907,8.842,19.749,19.75,19.749h882.159c10.907,0,19.749-8.842,19.749-19.749
    v-566.9C1084.83-70.923,1042.713-116.927,990.945-116.927z M1045.332,532.773H202.671v-665.548h240.156l35.107,47.358
    c3.725,5.025,9.61,7.988,15.865,7.988h497.145c29.989,0,54.387,28.285,54.387,63.051v547.151H1045.332z"/>
    <path d="M364.415,79.273c-15.299,0-27.746,12.447-27.746,27.747c0,15.299,12.447,27.746,27.746,27.746
    s27.746-12.447,27.746-27.746C392.161,91.72,379.714,79.273,364.415,79.273z"/>
    <path d="M905.03,87.27H458.402c-10.907,0-19.75,8.842-19.75,19.75s8.842,19.75,19.75,19.75h446.627
    c10.907,0,19.749-8.842,19.749-19.75S915.937,87.27,905.03,87.27z"/>
    <path d="M364.415,187.895c-15.299,0-27.746,12.447-27.746,27.746c0,15.3,12.447,27.747,27.746,27.747
    s27.746-12.447,27.746-27.747C392.161,200.342,379.714,187.895,364.415,187.895z"/>
    <path d="M905.03,195.892H458.402c-10.907,0-19.75,8.842-19.75,19.75s8.842,19.749,19.75,19.749h446.627
    c10.907,0,19.749-8.842,19.749-19.749S915.937,195.892,905.03,195.892z"/>
    <path d="M364.415,306.392c-15.299,0-27.746,12.447-27.746,27.746c0,15.3,12.447,27.747,27.746,27.747
    s27.746-12.447,27.746-27.747C392.161,318.839,379.714,306.392,364.415,306.392z"/>
    <path d="M905.03,314.39H458.402c-10.907,0-19.75,8.842-19.75,19.749s8.842,19.749,19.75,19.749h446.627
    c10.907,0,19.749-8.842,19.749-19.749S915.937,314.39,905.03,314.39z"/>
</symbol>
<symbol id="icon-success-story" viewBox="112 -312 1024 1024">
    <title>Success Story Icon</title>
    <path d="M622.099,339.924c65.728,0,127.521-25.596,173.998-72.072S868.17,159.581,868.17,93.853
    S842.573-33.668,796.097-80.145s-108.271-72.072-173.998-72.072s-127.521,25.596-173.998,72.072S376.029,28.126,376.029,93.853
    c0,65.728,25.596,127.522,72.072,173.999S556.371,339.924,622.099,339.924z M462.066-66.18
    c42.747-42.747,99.581-66.288,160.033-66.288c60.452,0,117.287,23.542,160.033,66.288c42.747,42.747,66.288,99.581,66.288,160.033
    s-23.541,117.287-66.288,160.034c-42.746,42.746-99.581,66.287-160.033,66.287c-60.453,0-117.287-23.541-160.033-66.287
    c-42.747-42.747-66.288-99.581-66.288-160.034S419.32-23.433,462.066-66.18z"/>
    <path d="M999.452,489.901l-98.251-181.169c17.19-22.877,31.503-47.727,42.74-74.297
    c18.403-43.51,27.734-89.717,27.734-137.339s-9.331-93.829-27.734-137.339c-17.771-42.016-43.208-79.746-75.604-112.142
    s-70.126-57.833-112.142-75.604c-43.511-18.403-89.718-27.734-137.339-27.734s-93.829,9.331-137.339,27.734
    c-42.016,17.771-79.745,43.208-112.141,75.604s-57.833,70.126-75.604,112.142c-18.403,43.51-27.734,89.717-27.734,137.339
    s9.331,93.829,27.734,137.339c12.53,29.625,28.888,57.107,48.793,82.103l-94.018,173.363c-3.16,5.827-3.186,12.852-0.069,18.701
    c3.117,5.851,8.961,9.747,15.561,10.375l150.939,14.354l87.197,114.6c3.751,4.931,9.576,7.791,15.714,7.791
    c0.503,0,1.01-0.02,1.517-0.059c6.684-0.515,12.651-4.384,15.847-10.276L624,481.741l88.748,163.645
    c3.195,5.893,9.162,9.762,15.846,10.276c0.508,0.039,1.014,0.059,1.518,0.059c6.137,0,11.963-2.861,15.714-7.791l87.196-114.6
    l150.94-14.354c6.599-0.628,12.442-4.524,15.56-10.375C1002.639,502.752,1002.612,495.728,999.452,489.901z M397.306-124.454
    c59.179-59.179,137.86-91.77,221.551-91.77s162.373,32.591,221.55,91.77c59.179,59.178,91.771,137.86,91.771,221.55
    c0,83.691-32.592,162.372-91.771,221.551c-59.178,59.178-137.859,91.77-221.55,91.77s-162.373-32.592-221.551-91.77
    c-59.178-59.179-91.769-137.86-91.769-221.551S338.128-65.276,397.306-124.454z M515.102,599.69l-73.927-97.159
    c-3.339-4.388-8.359-7.18-13.848-7.702l-129.823-12.346l73.069-134.736c32.129,31.832,69.44,56.88,110.943,74.434
    c36.731,15.536,75.389,24.579,115.192,27.029L515.102,599.69z M820.672,494.827c-5.488,0.522-10.509,3.314-13.847,7.702
    l-73.927,97.159l-82.012-151.225c36.321-3.253,71.626-12.037,105.31-26.284c42.016-17.771,79.745-43.208,112.142-75.604
    c1.837-1.837,3.644-3.696,5.436-5.566l76.722,141.472L820.672,494.827z"/>
</symbol>
<symbol id="icon-infographic" viewBox="112 -312 1024 1024">
    <title>Infographic Icon</title>
    <path d="M1006.138,38.56c-20.89-49.389-50.791-93.741-88.874-131.823c-38.082-38.083-82.434-67.984-131.823-88.874
    c-51.144-21.632-105.46-32.601-161.44-32.601S513.704-203.77,462.56-182.137c-49.389,20.89-93.741,50.791-131.823,88.874
    C292.654-55.18,262.753-10.829,241.863,38.56c-21.632,51.144-32.601,105.46-32.601,161.441s10.968,110.297,32.601,161.441
    c20.89,49.389,50.791,93.74,88.874,131.822c38.082,38.083,82.434,67.984,131.823,88.874c51.144,21.632,105.46,32.6,161.441,32.6
    s110.297-10.968,161.44-32.6c49.39-20.89,93.741-50.791,131.823-88.874c38.083-38.082,67.984-82.434,88.874-131.822
    c21.632-51.144,32.6-105.46,32.6-161.441C1038.738,144.02,1027.77,89.703,1006.138,38.56z M358.666-65.334
    c34.468-34.468,74.599-61.526,119.28-80.425c43.238-18.288,89.003-28.146,136.179-29.352v365.236H248.889
    c1.206-47.177,11.064-92.942,29.352-136.18C297.14,9.266,324.198-30.866,358.666-65.334z M248.89,209.875h343.647L310.479,406.271
    c-12.511-18.98-23.298-39.082-32.237-60.216C259.953,302.817,250.096,257.051,248.89,209.875z M969.759,346.055
    c-18.898,44.681-45.957,84.812-80.425,119.279s-74.6,61.526-119.28,80.425c-46.248,19.562-95.388,29.48-146.054,29.48
    s-99.805-9.919-146.054-29.48c-44.681-18.898-84.812-45.957-119.28-80.425c-13.445-13.445-25.745-27.762-36.891-42.864
    l307.739-214.277c0.007-0.005,0.014-0.01,0.021-0.015l0.108-0.075c0.075-0.052,0.14-0.111,0.213-0.165
    c0.173-0.128,0.345-0.255,0.508-0.393c0.116-0.098,0.224-0.202,0.335-0.304c0.122-0.113,0.245-0.224,0.361-0.343
    c0.122-0.125,0.236-0.255,0.35-0.385c0.096-0.109,0.192-0.216,0.283-0.328c0.111-0.138,0.213-0.28,0.316-0.422
    c0.086-0.119,0.172-0.237,0.252-0.359c0.089-0.137,0.172-0.277,0.254-0.418c0.082-0.14,0.163-0.279,0.238-0.423
    c0.067-0.129,0.127-0.26,0.188-0.391c0.076-0.163,0.151-0.326,0.219-0.494c0.048-0.12,0.09-0.241,0.133-0.363
    c0.065-0.182,0.128-0.363,0.182-0.549c0.035-0.121,0.063-0.244,0.094-0.366c0.046-0.186,0.092-0.371,0.128-0.56
    c0.027-0.142,0.045-0.286,0.065-0.429c0.024-0.17,0.051-0.339,0.067-0.512c0.017-0.186,0.022-0.372,0.028-0.559
    c0.004-0.113,0.017-0.224,0.017-0.338V-175.11c47.176,1.206,92.941,11.064,136.179,29.352
    c44.681,18.898,84.812,45.957,119.28,80.425s61.526,74.6,80.425,119.28c19.562,46.249,29.48,95.388,29.48,146.054
    C999.24,250.666,989.321,299.806,969.759,346.055z"/>
</symbol>
<symbol id="icon-white-paper" viewBox="112 -312 1024 1024">
    <title>White Paper Icon</title>
    <path d="M985.591,17.365l-223.83-236.011c-0.059-0.062-0.125-0.114-0.184-0.175c-0.26-0.267-0.534-0.517-0.808-0.769
    c-0.207-0.19-0.408-0.385-0.622-0.565c-0.305-0.257-0.627-0.495-0.948-0.733c-0.198-0.147-0.388-0.303-0.591-0.442
    c-0.392-0.27-0.802-0.515-1.214-0.757c-0.144-0.084-0.282-0.18-0.428-0.26c-0.542-0.299-1.1-0.572-1.672-0.821
    c-0.024-0.01-0.046-0.023-0.07-0.034c-2.392-1.029-5.025-1.603-7.793-1.603H335.988c-43.56,0-78.998,35.438-78.998,78.998v750.862
    c0,10.907,8.842,19.749,19.75,19.749h694.521c10.907,0,19.749-8.842,19.749-19.749v-574.1
    C991.01,25.899,989.071,21.035,985.591,17.365z M767.18-155.531L935.612,22.067H767.18V-155.531z M296.489,585.307v-731.113
    c0-21.78,17.719-39.499,39.499-39.499h391.694V41.816c0,10.907,8.842,19.75,19.749,19.75h204.081v523.741L296.489,585.307
    L296.489,585.307z"/>
</symbol>
<symbol id="icon-press-release" viewBox="112 -312 1024 1024">
    <title>Press Release Icon</title>
    <path d="M1085.108,140.609c-0.669-34.341-12.701-49.847-47.662-61.398v-235.443c0-10.907-8.842-19.75-19.749-19.75
    c-10.907,0-19.749,8.842-19.749,19.75v13.115c-0.014,0.015-0.025,0.027-0.039,0.042c-17.144,18.401-69.312,74.396-154.441,126.703
    C740.255,47.045,627.79,81.575,508.951,86.418c-0.185-1.96-0.657-3.926-1.464-5.837c-16.345-38.69-49.32-42.216-72.706-41.505
    c-38.442,1.172-77.756,0.942-115.773,0.722c-16.998-0.099-34.582-0.202-51.893-0.178c-38.489,0.052-57.229,17.729-58.977,55.631
    c-0.143,3.106-0.241,6.209-0.311,9.306c-4.291-0.078-8.694-0.013-13.242,0.58c-9.056,1.181-33.113,4.318-32.13,33.507
    c1.106,32.863,1.106,66.188,0,99.05c-0.982,29.191,23.075,32.327,32.13,33.507c3.595,0.47,7.101,0.61,10.532,0.61
    c0.971,0,1.931-0.02,2.89-0.038c0.047,3.795,0.101,7.588,0.165,11.373c0.577,33.932,21.093,53.446,56.288,53.54
    c10.311,0.027,20.44,0.05,30.439,0.069l2.633,167.177c0.038,2.376,0.503,4.726,1.376,6.937c0.559,1.416,3.646,8.861,9.569,16.333
    c9.102,11.482,20.777,17.657,33.205,17.657c1.197,0,2.402-0.058,3.611-0.173c11.079-1.058,22.55-0.775,34.695-0.477
    c4.287,0.105,8.719,0.215,13.14,0.261c0.137,0.002,0.271,0.002,0.408,0.002c23.697-0.001,36.545-21.558,38.458-41.697
    c0.07-0.741,0.099-1.485,0.085-2.229l-3.001-163.813c6.555-0.016,13.068-0.034,19.529-0.055
    c17.734-0.057,31.802-5.356,41.813-15.751c4.384-4.552,7.818-9.982,10.328-16.232c121.656-8.308,235.934,21.234,339.753,87.855
    c84.016,53.912,135.443,115.76,154.805,139.042c0.981,1.18,1.851,2.226,2.642,3.171v21.469c0,10.907,8.842,19.749,19.749,19.749
    c10.907,0,19.749-8.842,19.749-19.749V296.421c34.409-9.952,46.972-26.168,47.66-60.684
    C1085.729,204.512,1085.729,172.507,1085.108,140.609z M197.778,246.722c-2.083-0.271-7.616-0.992-9.538-2.434
    c-1.181-0.885-1.149-4.635-1.111-5.764c1.125-33.413,1.125-67.297,0-100.71c-0.038-1.128-0.07-4.878,1.111-5.764
    c1.923-1.441,7.456-2.163,9.539-2.434c3.115-0.406,6.469-0.442,9.99-0.37c0.018,1.764,0.038,3.523,0.058,5.272
    c0.064,5.541,0.13,11.27,0.13,16.845c0,12.846-0.046,25.926-0.092,38.575c-0.067,18.772-0.134,37.938-0.053,57.155
    C204.274,247.165,200.905,247.131,197.778,246.722z M392.56,499.757c-0.306,1.762-0.916,3.794-1.531,5.185
    c-3.347-0.053-6.752-0.137-10.067-0.218c-12.604-0.312-25.633-0.633-38.883,0.592c-1.385-0.83-3.513-3.517-5.121-6.338
    l-2.554-162.169c8.313,0.006,16.535,0.01,24.659,0.01c10.315,0,20.472-0.006,30.512-0.016L392.56,499.757z M469.55,93.032
    c-0.137,5.481-0.279,10.962-0.421,16.444c-0.307,11.859-0.625,24.121-0.885,36.204c-0.264,12.221-0.678,24.71-1.079,36.789
    c-0.981,29.571-1.996,60.149-0.952,90.488c0.346,10.065-1.161,17.371-4.243,20.571c-2.882,2.993-8.927,3.639-13.491,3.653
    c-56.746,0.184-116.904,0.187-183.915,0.008c-9.603-0.025-12.934-2.135-13.92-3.041c-1.795-1.648-2.881-5.903-2.979-11.673
    c-0.522-30.724-0.411-62.076-0.302-92.396c0.045-12.684,0.092-25.799,0.092-38.715c0-5.802-0.067-11.647-0.132-17.299
    c-0.147-12.792-0.286-24.874,0.272-36.993c0.53-11.506,2.791-14.462,3.471-15.094c0.717-0.666,3.997-2.841,16.101-2.857
    c1.668-0.002,3.338-0.003,5.012-0.003c15.559,0,31.314,0.091,46.599,0.18c38.369,0.223,78.046,0.453,117.206-0.74
    c16.816-0.511,26.993,1.621,33.578,14.129C469.557,92.801,469.553,92.916,469.55,93.032z M861.832,359.309
    c-50.51-32.412-104.265-56.937-159.771-72.892c-63.07-18.128-129.126-25.376-196.548-21.59c-0.647-26.873,0.245-54.376,1.13-81.049
    c0.405-12.19,0.823-24.796,1.091-37.247c0.147-6.815,0.313-13.696,0.485-20.541c66.873-2.538,132.615-14.136,195.633-34.539
    c55.516-17.974,109.446-42.928,160.293-74.171c60.799-37.355,105.613-76.469,133.802-103.83v560.916
    C969.361,443.161,924.112,399.272,861.832,359.309z M1060.424,235.244c-0.251,12.561-2.271,20.413-6.553,25.46
    c-3.239,3.819-8.464,6.961-16.426,9.809V105.414c18.442,7.204,22.571,14.678,22.98,35.676
    C1061.042,172.665,1061.042,204.342,1060.424,235.244z"/>
</symbol>
<symbol id="icon-news-story" viewBox="112 -312 1024 1024">
    <title>News Story Icon</title>
    <path d="M842.678,556.264c-3.144,0-6.299-0.75-9.188-2.27L624,443.86L414.51,553.994
    c-6.653,3.5-14.717,2.916-20.799-1.503s-9.127-11.907-7.857-19.316l40.008-233.271L256.383,134.702
    c-5.383-5.247-7.321-13.096-4.998-20.245s8.503-12.36,15.943-13.441l234.217-34.034L606.29-145.255
    c3.327-6.741,10.192-11.009,17.71-11.009c7.517,0,14.383,4.268,17.71,11.009L746.456,66.981l234.216,34.034
    c7.439,1.082,13.62,6.292,15.943,13.441c2.322,7.149,0.386,14.998-4.998,20.245L822.138,299.904l40.007,233.271
    c1.271,7.409-1.774,14.897-7.856,19.316C850.848,554.991,846.773,556.264,842.678,556.264z M312.609,134.35l148.259,144.518
    c4.655,4.537,6.779,11.074,5.68,17.481L431.55,500.412l183.26-96.346c5.754-3.025,12.626-3.025,18.38,0l183.261,96.345
    l-34.998-204.062c-1.1-6.407,1.024-12.944,5.68-17.481L935.391,134.35L730.5,104.577c-6.433-0.935-11.993-4.975-14.87-10.804
    L624-91.89L532.37,93.773c-2.876,5.829-8.438,9.869-14.87,10.804L312.609,134.35z"/>
</symbol>
<symbol id="icon-event" viewBox="112 -312 1024 1024">
    <title>Event Icon</title>
    <path d="M966-154.421h-75.638v-14.886c0-23.141-18.827-41.967-41.968-41.967h-6.969
    c-23.141,0-41.968,18.826-41.968,41.967v14.886H448.544v-4.243c0-23.141-18.827-41.968-41.968-41.968h-6.969
    c-23.141,0-41.967,18.827-41.967,41.968v4.243h-75.638c-43.559,0-78.998,35.438-78.998,78.998v666.947
    c0,10.907,8.842,19.749,19.75,19.749h802.493c10.907,0,19.749-8.842,19.749-19.749V-75.423
    C1044.997-118.983,1009.559-154.421,966-154.421z M824.145-169.308c0-9.529,7.752-17.281,17.28-17.281h6.969
    c9.528,0,17.28,7.752,17.28,17.281v99.561c0,9.529-7.752,17.281-17.28,17.281h-6.969c-9.528,0-17.28-7.752-17.28-17.281V-169.308z
     M382.327-158.665c0-9.529,7.752-17.281,17.281-17.281h6.969c9.529,0,17.281,7.752,17.281,17.281v99.561
    c0,9.529-7.752,17.281-17.281,17.281h-6.969c-9.529,0-17.281-7.752-17.281-17.281V-158.665z M282.003-114.922h75.638v55.818
    c0,23.141,18.826,41.968,41.967,41.968h6.969c23.141,0,41.968-18.827,41.968-41.968v-55.818h350.913v45.176
    c0,23.141,18.827,41.967,41.968,41.967h6.969c23.141,0,41.968-18.826,41.968-41.967v-45.176h75.638
    c21.779,0,39.499,17.719,39.499,39.499V64.345H242.504V-75.423C242.504-97.203,260.223-114.922,282.003-114.922z M242.504,571.775
    V89.032h762.994v482.743H242.504z"/>
</symbol>
<symbol id="icon-webcast" viewBox="112 -312 1024 1024">
    <title>Webcast Icon</title>
    <path d="M565.064,224.557c1.88,1.058,3.964,1.584,6.048,1.584c2.225,0,4.448-0.602,6.417-1.799l139.188-84.698
    c3.681-2.239,5.928-6.236,5.928-10.544c0-4.309-2.247-8.305-5.928-10.545L577.528,33.862c-3.811-2.317-8.576-2.401-12.464-0.215
    s-6.295,6.3-6.295,10.76v169.391C558.768,218.258,561.176,222.372,565.064,224.557z M583.455,66.366l103.1,62.734l-103.1,62.737
    V66.366z"/>
    <path d="M1005.497-153.223H242.504c-43.56,0-78.998,35.438-78.998,78.998v548.451
    c0,43.56,35.438,78.997,78.998,78.997h762.994c43.56,0,78.997-35.438,78.997-78.997V-74.225
    C1084.494-117.785,1049.057-153.223,1005.497-153.223z M242.504-113.724h762.994c21.779,0,39.499,17.719,39.499,39.499v423.494
    H203.005V-74.225C203.005-96.005,220.724-113.724,242.504-113.724z M1005.497,513.725H242.504c-21.78,0-39.499-17.72-39.499-39.499
    v-100.27h841.992v100.27C1044.995,496.005,1027.276,513.725,1005.497,513.725z"/>
    <path d="M613.609,426.688c-11.206,0-20.308,9.102-20.308,20.308c0,11.214,9.102,20.308,20.308,20.308
    c11.205,0,20.308-9.094,20.308-20.308C633.918,435.79,624.815,426.688,613.609,426.688z"/>
</symbol>
<symbol id="icon-envelope" viewBox="112 -312 1024 1024">
    <title>Envelope Icon</title>
    <path d="M1011.832-114.936H236.17c-10.907,0-19.75,8.842-19.75,19.75v590.373c0,10.907,8.842,19.749,19.75,19.749
    h775.662c10.907,0,19.749-8.842,19.749-19.749V-95.186C1031.58-106.094,1022.739-114.936,1011.832-114.936z M255.92-10.927
    l248.384,248.384L255.92,458.521V-10.927z M521.79,254.943l52.016,52.015c13.408,13.408,31.234,20.793,50.196,20.793
    c18.962,0,36.788-7.385,50.196-20.792l48.953-48.953l244.303,217.431H274.045L521.79,254.943z M740.635,240.521L992.083-10.927
    v475.238L740.635,240.521z M992.083-75.437v7.022c-0.455,1.287-0.716,2.667-0.716,4.11c0.001,12.368-4.815,23.996-13.562,32.742
    L656.74,289.503c-8.744,8.745-20.371,13.561-32.739,13.561c-12.367,0-23.995-4.815-32.74-13.562L270.196-31.563
    c-8.744-8.744-13.56-20.37-13.562-32.735c0-1.442-0.26-2.819-0.714-4.105v-7.033L992.083-75.437L992.083-75.437z"/>
</symbol>
<symbol id="icon-plaque" viewBox="112 -312 1024 1024">
    <title>Plaque Icon</title>
    <path d="M585.88,287.868c6.572,18.012,4.506,39.353-3.734,56.352c-1.804,3.724-3.508,3.547-6.511,1.743
    c-20.185-12.123-29.783-27.113-31.658-51.074c-1.333-17.051,7.791-47.599,7.791-47.599S578.214,266.858,585.88,287.868z
     M531.745,53.002c0.271,21.832-0.561,43.615-9.329,64.618c-9.953,23.844-29.178,38.164-56.525,44.761
    c-7.834-21.533-5.564-41.815,7.729-61.115c14.377-20.873,35.498-35.306,57.206-49.072C531.322,52.617,531.743,52.8,531.745,53.002
    z M531.829,233.178c-3.018,23.005-13.141,39.044-34.939,50.882c-14.779-18.656-19.523-40.438-13.499-62.003
    c5.211-18.659,12.726-32.383,25.2-47.434c3.119-3.762,6.533-7.32,10.551-11.795c2.085,6.271,4.052,11.756,5.728,17.306
    C530.129,197.553,534.205,215.07,531.829,233.178z M475.218-15.098c12.06-16.299,27.619-29.538,44.636-42.751
    c2.647,25.598,5.398,50.364-4.806,74.879c-7.907,18.996-23.159,31.48-43.128,39.785c-4.316,1.795-5.855,0.474-7.316-3.049
    C454.525,29.482,459.106,6.676,475.218-15.098z M398.885,7.483c21.232,19.953,42.189,38.732,48.699,66.566
    c3.358,14.358,0.601,28.208-6.176,41.659c-1.717,3.409-3.724,6.706-5.816,10.444c-12.586-4.988-22.512-12.299-30.124-22.125
    c-8.488-10.957-12.317-23.522-13.526-36.936C390.163,47.365,393.962,28.011,398.885,7.483z M384.317,123.058
    c8.991,5.696,17.328,10.655,25.271,16.079c13.948,9.525,26.526,20.279,34.953,34.504c10.998,18.563,10.082,37.84,2.1,58.157
    c-11.801-2.434-22.055-6.883-31.115-13.489c-11.386-8.303-18.726-19.255-23.391-31.732
    C384.624,166.493,383.915,145.449,384.317,123.058z M381.746,263.831c20.411-3.158,39.815-6.324,59.382-1.449
    c20.478,5.102,33.775,18.932,42.191,39.963c-5.071,1.97-9.903,4.291-14.959,5.728c-15.628,4.443-30.426,1.556-44.497-6.483
    C407.629,292.315,394.737,278.872,381.746,263.831z M430.688,360.706c4.206-3.271,7.761-6.152,11.428-8.865
    c12.954-9.585,26.347-18.262,41.981-22.138c18.54-4.596,37.56,0.354,52.834,15.042c-11.723,17.637-27.33,27.334-47.515,28.432
    C469.129,374.281,450.253,368.085,430.688,360.706z M578.423,416.283c-13.555,5.579-27.646-1.662-41.799-3.818
    c-9.215-1.404-18.307-3.726-27.445-5.685c-1.391-0.298-2.731-0.861-4.724-1.504c12.596-12.163,25.122-23.283,39.981-31.049
    c9.711-5.075,19.901-8.122,30.839-7.595c12.362,0.596,23.269,5.417,33.604,13.006
    C601.717,393.129,591.894,410.739,578.423,416.283z M855.866,186.577c-4.666,12.478-12.006,23.429-23.392,31.732
    c-9.059,6.606-19.314,11.055-31.115,13.489c-7.981-20.318-8.898-39.594,2.1-58.157c8.427-14.225,21.005-24.979,34.954-34.504
    c7.943-5.424,16.279-10.383,25.271-16.079C864.085,145.449,863.375,166.493,855.866,186.577z M800.417,74.048
    c6.51-27.834,27.467-46.613,48.698-66.566c4.924,20.529,8.722,39.883,6.945,59.607c-1.209,13.414-5.038,25.979-13.527,36.936
    c-7.612,9.826-17.539,17.138-30.125,22.125c-2.091-3.738-4.098-7.035-5.816-10.444C799.815,102.257,797.058,88.407,800.417,74.048
    z M728.146-57.85c17.017,13.214,32.577,26.453,44.636,42.751c16.111,21.775,20.693,44.58,10.614,68.864
    c-1.462,3.522-3,4.844-7.316,3.049c-19.969-8.305-35.221-20.789-43.128-39.785C722.746-7.486,725.499-32.252,728.146-57.85z
     M716.255,53.002c0.003-0.202,0.423-0.385,0.919-0.807c21.708,13.766,42.83,28.199,57.206,49.072
    c13.293,19.299,15.563,39.582,7.729,61.115c-27.346-6.597-46.571-20.918-56.524-44.761
    C716.817,96.617,715.983,74.834,716.255,53.002z M751.11,284.06c-21.798-11.837-31.92-27.877-34.939-50.882
    c-2.376-18.108,1.699-35.625,6.96-53.045c1.675-5.55,3.642-11.034,5.726-17.306c4.019,4.476,7.434,8.033,10.552,11.795
    c12.475,15.051,19.988,28.775,25.2,47.434C770.632,243.622,765.889,265.404,751.11,284.06z M662.12,287.868
    c7.666-21.01,34.112-40.577,34.112-40.577s9.123,30.548,7.79,47.599c-1.873,23.961-11.472,38.951-31.657,51.074
    c-3.004,1.804-4.706,1.98-6.512-1.743C657.613,327.22,655.547,305.88,662.12,287.868z M738.82,406.781
    c-9.138,1.959-18.23,4.281-27.445,5.685c-14.152,2.156-28.242,9.397-41.798,3.818c-13.47-5.544-23.294-23.154-30.456-36.644
    c10.334-7.589,21.242-12.41,33.603-13.006c10.938-0.527,21.129,2.52,30.839,7.595c14.859,7.766,27.386,18.885,39.981,31.049
    C741.551,405.92,740.211,406.483,738.82,406.781z M758.583,373.177c-20.184-1.099-35.792-10.795-47.515-28.432
    c15.275-14.688,34.295-19.637,52.834-15.042c15.634,3.875,29.027,12.552,41.982,22.138c3.666,2.713,7.221,5.595,11.427,8.865
    C797.747,368.085,778.871,374.281,758.583,373.177z M824.138,301.59c-14.072,8.039-28.87,10.926-44.498,6.483
    c-5.056-1.437-9.887-3.758-14.959-5.728c8.417-21.031,21.712-34.861,42.191-39.963c19.566-4.875,38.97-1.709,59.382,1.449
    C853.263,278.872,840.37,292.315,824.138,301.59z"/>
    <path d="M623.945,664.491c-2.902,0-5.803-0.639-8.488-1.917c-103.694-49.356-191.091-114.44-252.741-188.215
    c-31.793-38.046-56.976-78.521-74.846-120.299c-18.5-43.252-29.256-88.125-31.968-133.372c-0.024-0.394-0.036-0.787-0.036-1.182
    v-322.369c0-8.031,4.863-15.262,12.301-18.291L616.56-263.033c4.775-1.944,10.125-1.944,14.898,0l348.376,141.881
    c7.438,3.029,12.3,10.26,12.3,18.291v322.369c0,0.394-0.012,0.787-0.035,1.181c-2.71,45.249-13.465,90.123-31.966,133.373
    c-17.872,41.781-43.058,82.256-74.857,120.301c-61.668,73.779-149.101,138.863-252.847,188.215
    C629.745,663.854,626.845,664.491,623.945,664.491z M295.365,218.906c2.497,40.502,12.192,80.744,28.821,119.62
    c16.355,38.236,39.516,75.415,68.839,110.505c56.356,67.439,136.06,127.396,230.922,173.784
    c94.909-46.384,174.65-106.342,231.022-173.785c29.327-35.088,52.491-72.267,68.848-110.504
    c16.629-38.874,26.323-79.116,28.818-119.619V-89.58L624.009-223.418L295.365-89.58V218.906z"/>
</symbol>
<symbol id="icon-lightbulb" viewBox="112 -312 1024 1024">
    <title>Lightbulb Icon</title>
    <path d="M628.239-97.3c-67.798,0-131.539,26.406-179.479,74.354c-47.938,47.945-74.339,111.688-74.339,179.486
    c0,49.235,14.106,96.989,40.793,138.1c4.905,7.554,11.585,15.831,19.32,25.415c20.943,25.949,49.626,61.487,59.687,105.17
    c2.257,9.809,6.25,55.965,8.236,82.754c0.111,1.491,0.402,2.925,0.821,4.301c-6.107,5.984-9.754,14.263-9.754,23.246v76.362
    c0,15.526,10.849,28.554,25.353,31.907c-0.161,0.812-0.243,1.651-0.235,2.511c0.1,12.08,4.386,24.223,11.759,33.313
    c6.84,8.434,19.715,18.486,42.202,18.486h111.195c17.935,0,31.729-4.727,41.003-14.048c8.868-8.915,13.138-21.318,13.051-37.918
    c-0.004-0.804-0.091-1.587-0.241-2.347c14.508-3.356,25.36-16.382,25.36-31.905v-76.362c0-9.176-3.822-17.611-10.178-23.623
    c0.295-1.043,0.521-2.117,0.643-3.227c2.969-27.017,7.941-68.326,9.704-75.579c4.685-19.285,11.765-48.429,62.155-116.1
    c5.37-7.213,10.009-13.441,13.777-19.054c28.132-41.843,43.001-90.739,43.001-141.403c0-67.8-26.401-131.542-74.341-179.487
    C759.791-70.894,696.044-97.3,628.239-97.3z M707.299,666.647c-4.47,4.493-12.377,6.771-23.501,6.771H572.603
    c-27.649,0-29.238-22.754-29.275-27.315c-0.004-0.496-0.046-0.982-0.107-1.462h170.056c-0.068,0.534-0.114,1.075-0.111,1.628
    C713.218,656.097,711.353,662.573,707.299,666.647z M738.284,611.888c0,4.447-3.608,8.065-8.044,8.065H526.237
    c-4.425,0-8.025-3.618-8.025-8.065v-76.362c0-2.951,1.642-5.599,4.208-6.971h211.639c2.577,1.374,4.227,4.021,4.227,6.971v76.362
    H738.284z M806.288,275.914c-3.238,4.822-7.61,10.693-12.673,17.492c-21.979,29.517-55.193,74.122-68.856,130.363
    c-2.187,8.994-6.135,41.562-8.604,63.001h-175.73c-1.873-23.072-5.076-58.951-7.711-70.406
    c-12.103-52.551-45.405-93.812-67.442-121.116c-7.048-8.731-13.134-16.273-16.928-22.116
    c-22.521-34.691-34.424-75.008-34.424-116.591c0-118.188,96.143-214.341,214.319-214.341c57.255,0,111.08,22.297,151.562,62.783
    c40.48,40.484,62.774,94.308,62.774,151.558C842.576,199.325,830.029,240.601,806.288,275.914z"/>
    <path d="M514.818,157.993c0-35.992,13.692-70.125,38.555-96.112c3.77-3.941,3.632-10.191-0.309-13.962
    c-3.941-3.77-10.191-3.63-13.962,0.309c-28.395,29.68-44.034,68.662-44.034,109.765c0,42.427,16.52,82.308,46.516,112.297
    c1.928,1.928,4.455,2.892,6.981,2.892c2.527,0,5.055-0.965,6.983-2.894c3.856-3.856,3.855-10.109-0.002-13.965
    C529.283,230.064,514.818,195.144,514.818,157.993z"/>
    <path d="M269.586,143.536h-55.129c-10.072,0-18.237,8.165-18.237,18.237s8.165,18.237,18.237,18.237h55.129
    c10.072,0,18.237-8.165,18.237-18.237S279.656,143.536,269.586,143.536z"/>
    <path d="M1033.543,143.536h-55.129c-10.072,0-18.237,8.165-18.237,18.237s8.166,18.237,18.237,18.237h55.129
    c10.072,0,18.237-8.165,18.237-18.237S1043.615,143.536,1033.543,143.536z"/>
    <path d="M329.159,369.953l-38.985,38.982c-7.12,7.123-7.123,18.672,0,25.789c3.562,3.562,8.227,5.345,12.895,5.345
    c4.665,0,9.333-1.784,12.895-5.34l38.985-38.982c7.12-7.123,7.123-18.672,0-25.789
    C347.828,362.836,336.286,362.841,329.159,369.953z"/>
    <path d="M905.945-101.934c4.668,0,9.333-1.784,12.895-5.34l38.982-38.982c7.12-7.123,7.12-18.672,0-25.795
    c-7.123-7.112-18.666-7.112-25.789,0l-38.982,38.982c-7.12,7.123-7.12,18.672,0,25.795
    C896.612-103.718,901.276-101.934,905.945-101.934z"/>
    <path d="M315.964-172.051c-7.123-7.112-18.672-7.118-25.789,0.006c-7.123,7.118-7.12,18.666,0,25.789l38.985,38.982
    c3.562,3.556,8.227,5.34,12.895,5.34c4.668,0,9.336-1.784,12.895-5.345c7.123-7.118,7.12-18.666,0-25.789L315.964-172.051z"/>
    <path d="M918.84,369.953c-7.123-7.112-18.666-7.112-25.789,0c-7.12,7.123-7.12,18.672,0,25.795l38.982,38.982
    c3.562,3.556,8.227,5.34,12.895,5.34s9.333-1.784,12.895-5.34c7.12-7.123,7.12-18.672,0-25.795L918.84,369.953z"/>
    <path d="M623.999-206.501c10.072,0,18.237-8.165,18.237-18.237v-55.129c0-10.072-8.165-18.237-18.237-18.237
    s-18.237,8.165-18.237,18.237v55.129C605.76-214.666,613.927-206.501,623.999-206.501z"/>
</symbol>
<symbol id="icon-training" viewBox="112 -312 1024 1024">
    <title>Training Icon</title>
    <path d="M632.542,170.64c-31.75,0-57.58,25.829-57.58,57.58s25.83,57.58,57.58,57.58s57.579-25.83,57.579-57.58
    S664.292,170.64,632.542,170.64z M632.542,264.374c-19.937,0-36.155-16.22-36.155-36.155c0-19.934,16.218-36.155,36.155-36.155
    s36.155,16.221,36.155,36.155C668.696,248.154,652.479,264.374,632.542,264.374z"/>
    <path d="M597.143,349.131c-31.751,0-57.58,25.829-57.58,57.58c0,31.75,25.829,57.579,57.58,57.579
    c31.75,0,57.579-25.829,57.579-57.579C654.724,374.96,628.893,349.131,597.143,349.131z M597.143,442.865
    c-19.937,0-36.155-16.221-36.155-36.155c0-19.935,16.218-36.155,36.155-36.155s36.155,16.22,36.155,36.155
    C633.298,426.645,617.081,442.865,597.143,442.865z"/>
    <path d="M755.859,101.732c2.09,2.092,4.833,3.138,7.574,3.138s5.484-1.046,7.574-3.138l32.352-32.352l32.352,32.352
    c2.09,2.092,4.833,3.138,7.574,3.138c2.741,0,5.484-1.046,7.574-3.138c4.185-4.185,4.185-10.964,0-15.148l-32.352-32.352
    l32.352-32.352c4.185-4.185,4.185-10.964,0-15.148c-4.179-4.185-10.969-4.185-15.148,0l-32.352,32.352L771.008,6.732
    c-4.179-4.185-10.969-4.185-15.148,0c-4.185,4.185-4.185,10.964,0,15.148l32.352,32.352l-32.352,32.352
    C751.674,90.768,751.674,97.547,755.859,101.732z"/>
    <path d="M582.909,101.732c2.09,2.092,4.833,3.138,7.574,3.138c2.741,0,5.484-1.046,7.574-3.138L630.41,69.38
    l32.352,32.352c2.09,2.092,4.833,3.138,7.574,3.138s5.484-1.046,7.574-3.138c4.185-4.185,4.185-10.964,0-15.148l-32.352-32.352
    L677.91,21.88c4.185-4.185,4.185-10.964,0-15.148c-4.179-4.185-10.969-4.185-15.148,0L630.41,39.084L598.058,6.732
    c-4.179-4.185-10.969-4.185-15.148,0c-4.185,4.185-4.185,10.964,0,15.148l32.352,32.352L582.91,86.584
    C578.725,90.768,578.725,97.547,582.909,101.732z"/>
    <path d="M404.604,101.732c2.09,2.092,4.833,3.138,7.574,3.138s5.484-1.046,7.574-3.138l32.352-32.352l32.352,32.352
    c2.09,2.092,4.833,3.138,7.574,3.138s5.484-1.046,7.574-3.138c4.185-4.185,4.185-10.964,0-15.148l-32.352-32.352l32.352-32.352
    c4.185-4.185,4.185-10.964,0-15.148c-4.179-4.185-10.969-4.185-15.148,0l-32.352,32.352L419.753,6.732
    c-4.179-4.185-10.969-4.185-15.148,0c-4.185,4.185-4.185,10.964,0,15.148l32.352,32.352l-32.352,32.352
    C400.419,90.768,400.419,97.547,404.604,101.732z"/>
    <path d="M825.613,217.094c-1.844-2.762-4.862-4.509-8.173-4.734c-3.337-0.209-6.536,1.093-8.74,3.573
    l-40.023,45.047c-3.931,4.42-3.531,11.194,0.892,15.122c4.423,3.928,11.194,3.531,15.125-0.894l19.316-21.74
    c-3.582,69.887-47.138,124.537-108.915,134.656c-5.84,0.957-9.797,6.465-8.84,12.303c0.86,5.252,5.403,8.981,10.558,8.981
    c0.575,0,1.159-0.047,1.744-0.141c71.785-11.762,122.511-74.183,126.866-153.92l14.847,22.205c2.066,3.091,5.458,4.76,8.916,4.76
    c2.045,0,4.117-0.586,5.945-1.81c4.917-3.285,6.238-9.938,2.95-14.855L825.613,217.094z"/>
    <path d="M453.689,170.64c-31.751,0-57.58,25.829-57.58,57.58s25.829,57.58,57.58,57.58
    c31.75,0,57.58-25.83,57.58-57.58S485.439,170.64,453.689,170.64z M453.689,264.374c-19.937,0-36.155-16.22-36.155-36.155
    c0-19.934,16.218-36.155,36.155-36.155s36.155,16.221,36.155,36.155C489.844,248.154,473.626,264.374,453.689,264.374z"/>
    <path d="M939.654-222.423H824.737v-1.235c0-17.696-14.397-32.093-32.094-32.093H455.357
    c-17.696,0-32.092,14.396-32.092,32.093v1.235H308.347c-43.56,0-78.998,35.438-78.998,78.998v720.178
    c0,43.56,35.438,78.998,78.998,78.998h631.306c43.56,0,78.997-35.438,78.997-78.998v-720.178
    C1018.651-186.985,983.214-222.423,939.654-222.423z M447.951-223.658c0-4.015,3.392-7.406,7.406-7.406h337.286
    c4.015,0,7.406,3.392,7.406,7.406v36.604c0,4.015-3.392,7.406-7.406,7.406H455.357c-4.014,0-7.406-3.392-7.406-7.406V-223.658z
     M979.154,576.753c0,21.78-17.72,39.5-39.499,39.5H308.347c-21.78,0-39.499-17.72-39.499-39.5v-720.178
    c0-21.78,17.719-39.499,39.499-39.499H423.54c2.034,15.752,15.522,27.963,31.818,27.963h337.286
    c16.296,0,29.785-12.212,31.819-27.963h115.192c21.779,0,39.499,17.719,39.499,39.499v720.178H979.154z"/>
</symbol>
<symbol id="icon-search" viewBox="0 0 1024 1024">
    <title>Search Icon</title>
    <path d="M987.315,852.159L763.738,659.74c-14.657-14.658-34.812-21.994-53.138-20.151l-40.316-38.496
    c42.145-54.978,69.633-120.943,75.128-194.245C761.911,205.262,611.635,27.5,408.227,11.009
    C204.808-5.483,28.878,144.783,12.388,348.203C-4.103,549.786,147.997,727.548,349.581,744.031
    c93.463,7.338,183.258-20.15,252.89-75.129l40.323,38.477c0,18.326,7.337,38.495,21.995,53.153l188.752,225.404
    c25.662,25.663,62.314,32.981,93.454,23.818c14.676-3.65,29.332-12.813,42.165-25.644
    C1025.81,949.285,1023.968,888.811,987.315,852.159z M98.514,355.53C111.345,201.594,246.955,86.146,400.891,98.968
    c153.941,12.831,269.393,148.441,256.558,302.377c-12.831,153.934-148.429,269.385-302.374,256.57
    C201.14,645.082,85.691,509.466,98.514,355.53z"/>
</symbol>
<symbol id="turnitin-logo" viewbox="0 0 220 70">
    <title>Turnitin Logo (Text and Icon) Icon</title>
    <path fill="#2e8aca" d="M161.209,32.32c3.504-8.264,5.432-17.369,5.432-26.911h32.818c0,15.398-3.419,29.998-9.54,43.082H177.4
        L161.209,32.32z M177.4,44.916h10.529c4.854-11.077,7.728-23.135,8.178-35.892L170.15,9.026c-0.396,8.232-2.16,16.005-5.074,23.294
        L177.4,44.916z"/>
    <path fill="#f44336" d="M199.164,13.252c5.904-1.187,12.288,0.569,14.682,3.535c5.246,6.498,0.062,22.07-13.787,33.257
        c-12.771,10.31-28.057,14.281-32.889,8.286c-3.335-4.137-0.884-12.333,3.405-16.65l6.825,6.812v-16.17h-16.189l6.792,6.797
        c-5.733,5.751-8.364,15.27-3.757,21.477c1.413,1.904,3.583,3.039,6.104,3.615c7.584,1.734,19.519-2.541,30.051-11.043
        c15.078-12.179,21.502-28.388,15.08-36.344C212.25,12.823,206.268,11.78,199.164,13.252"/>
    <path fill="#f44336" d="M2,28.41l8.875-8.719v4.93h7.553v4.253h-7.553v11.688c0,2.73,1.134,4.096,3.401,4.096
        c1.696,0,3.485-0.561,5.371-1.689v4.416c-1.815,1.018-3.797,1.529-5.941,1.529c-2.164,0-3.963-0.632-5.399-1.896
        c-0.451-0.377-0.821-0.809-1.118-1.285c-0.293-0.475-0.541-1.097-0.737-1.867c-0.2-0.771-0.3-2.233-0.3-4.398V28.874H2V28.41z"/>
    <path fill="#f44336" d="M37.555,48.499v-3.062c-1.004,1.097-2.15,1.953-3.438,2.562c-1.289,0.609-2.574,0.912-3.854,0.912
        c-1.507,0-2.896-0.374-4.167-1.127s-2.231-1.771-2.881-3.062c-0.648-1.289-0.973-3.432-0.973-6.423V24.619h4.725v13.609
        c0,2.504,0.358,4.254,1.075,5.25c0.72,0.992,1.978,1.487,3.778,1.487c2.248,0,4.159-1.098,5.735-3.295V24.619h4.723v23.88H37.555z"
        />
    <path fill="#f44336" d="M60.044,24.154c-2.284,0-4.568,1.188-6.851,4.872l-0.261,0.417v-4.821h-4.75V48.5h4.75V36.014
        c0-1.992,0.56-3.712,1.675-5.167c1.117-1.452,2.436-2.176,3.959-2.176c1.395,0,2.914,0.023,4.549,1.571v-5.23
        C62.068,24.446,61.043,24.154,60.044,24.154"/>
    <path fill="#f44336" d="M71.243,24.621v3.036c2.111-2.334,4.506-3.502,7.189-3.502c1.487,0,2.872,0.383,4.152,1.154
        s2.254,1.826,2.92,3.167c0.665,1.34,0.999,3.465,0.999,6.371V48.5H81.78V34.898c0-2.44-0.373-4.183-1.117-5.232
        c-0.744-1.043-1.989-1.567-3.737-1.567c-2.232,0-4.126,1.116-5.684,3.344v17.056h-4.828V24.621H71.243z"/>
    <path fill="#2e8aca" d="M94.541,16.614c0.78,0,1.445,0.268,2,0.803c0.553,0.538,0.832,1.194,0.832,1.973
        c0,0.763-0.278,1.42-0.832,1.974c-0.555,0.552-1.22,0.831-2,0.831c-0.726,0-1.366-0.283-1.919-0.845
        c-0.554-0.56-0.83-1.214-0.83-1.96c0-0.727,0.275-1.372,0.83-1.933C93.175,16.895,93.815,16.614,94.541,16.614 M92.208,24.621
        h4.723v23.878h-4.723V24.621z"/>
    <path fill="#2e8aca" d="M99.701,28.41l8.877-8.719v4.93h7.553v4.253h-7.553v11.688c0,2.73,1.134,4.096,3.398,4.096
        c1.694,0,3.488-0.561,5.375-1.689v4.416c-1.817,1.018-3.799,1.529-5.945,1.529c-2.164,0-3.963-0.632-5.399-1.896
        c-0.451-0.377-0.821-0.809-1.117-1.285c-0.292-0.475-0.539-1.097-0.738-1.867c-0.198-0.771-0.296-2.233-0.296-4.398V28.874h-4.155
        V28.41z"/>
    <path fill="#f44336" d="M122.723,16.614c0.776,0,1.441,0.268,1.996,0.803c0.559,0.538,0.832,1.194,0.832,1.973
        c0,0.763-0.273,1.42-0.832,1.974c-0.555,0.552-1.22,0.831-1.996,0.831c-0.727,0-1.367-0.283-1.922-0.845
        c-0.555-0.56-0.83-1.214-0.83-1.96c0-0.727,0.275-1.372,0.83-1.933S121.996,16.614,122.723,16.614 M120.384,24.621h4.726v23.878
        h-4.726V24.621z"/>
    <path fill="#f44336" d="M135.736,24.621v3.036c2.113-2.334,4.51-3.502,7.189-3.502c1.487,0,2.874,0.383,4.155,1.154
        c1.278,0.771,2.253,1.826,2.918,3.167c0.665,1.34,1.004,3.465,1.004,6.371V48.5h-4.728V34.898c0-2.44-0.371-4.183-1.114-5.232
        c-0.748-1.043-1.99-1.567-3.738-1.567c-2.233,0-4.127,1.116-5.687,3.344v17.056h-4.825V24.621H135.736z"/>
    <path fill="#f44336" d="M151.025,20.943h0.482V19.67h0.289c0.37,0,0.512,0.13,0.893,0.805l0.265,0.468h0.591l-0.363-0.583
        c-0.25-0.402-0.438-0.659-0.697-0.75v-0.016c0.509-0.028,0.856-0.377,0.856-0.862c0-0.326-0.251-0.786-0.991-0.786h-1.324V20.943
        L151.025,20.943z M151.509,19.256v-0.902h0.778c0.318,0,0.537,0.174,0.537,0.447c0,0.311-0.25,0.455-0.619,0.455H151.509z
         M154.576,19.398c0,1.288-1.047,2.332-2.335,2.332c-1.285,0-2.323-1.044-2.323-2.332c0-1.287,1.038-2.323,2.323-2.323
        C153.529,17.075,154.576,18.112,154.576,19.398 M155.035,19.398c0-1.542-1.249-2.785-2.794-2.785c-1.543,0-2.784,1.242-2.784,2.785
        c0,1.544,1.241,2.794,2.784,2.794C153.786,22.193,155.035,20.943,155.035,19.398"/>
</symbol>
<symbol id="turnitin-logo__text" viewBox="0 0 160 70" >
    <path fill="#f44336" d="M4,30.646l8.875-8.719v4.93h7.553v4.253h-7.553v11.688c0,2.73,1.134,4.096,3.401,4.096
        c1.696,0,3.485-0.561,5.371-1.689v4.416c-1.815,1.018-3.797,1.529-5.941,1.529c-2.164,0-3.963-0.632-5.399-1.896
        c-0.451-0.377-0.821-0.809-1.118-1.285c-0.293-0.475-0.541-1.097-0.737-1.867c-0.2-0.771-0.3-2.233-0.3-4.398V31.11H4V30.646z"/>
    <path fill="#f44336" d="M39.555,50.735v-3.062c-1.004,1.097-2.15,1.953-3.438,2.562c-1.289,0.609-2.574,0.912-3.854,0.912
        c-1.507,0-2.896-0.374-4.167-1.127s-2.231-1.771-2.881-3.062c-0.648-1.289-0.973-3.432-0.973-6.423V26.855h4.725v13.609
        c0,2.504,0.358,4.254,1.075,5.25c0.72,0.992,1.978,1.487,3.778,1.487c2.248,0,4.159-1.098,5.735-3.295V26.855h4.723v23.88H39.555z"
        />
    <path fill="#f44336" d="M62.044,26.391c-2.284,0-4.568,1.188-6.851,4.872l-0.261,0.417v-4.821h-4.75v23.878h4.75V38.25
        c0-1.992,0.56-3.712,1.675-5.167c1.117-1.452,2.436-2.177,3.959-2.177c1.395,0,2.914,0.023,4.549,1.571v-5.23
        C64.068,26.683,63.043,26.391,62.044,26.391"/>
    <path fill="#f44336" d="M73.243,26.857v3.036c2.111-2.334,4.506-3.502,7.189-3.502c1.487,0,2.873,0.383,4.152,1.154
        c1.279,0.771,2.254,1.825,2.92,3.167c0.665,1.34,0.999,3.465,0.999,6.371v13.652h-4.724V37.135c0-2.44-0.372-4.184-1.116-5.232
        c-0.744-1.043-1.989-1.566-3.737-1.566c-2.232,0-4.126,1.115-5.684,3.344v17.056h-4.828V26.857H73.243z"/>
    <path fill="#2e8aca" d="M96.541,18.851c0.779,0,1.445,0.268,2,0.803c0.553,0.538,0.832,1.194,0.832,1.974
        c0,0.763-0.277,1.42-0.832,1.974c-0.555,0.552-1.221,0.831-2,0.831c-0.727,0-1.366-0.283-1.919-0.845
        c-0.554-0.561-0.83-1.215-0.83-1.96c0-0.728,0.274-1.372,0.83-1.934C95.175,19.132,95.814,18.851,96.541,18.851 M94.208,26.857
        h4.724v23.878h-4.724V26.857z"/>
    <path fill="#2e8aca" d="M101.701,30.646l8.877-8.719v4.93h7.553v4.253h-7.553v11.688c0,2.73,1.134,4.096,3.398,4.096
        c1.694,0,3.488-0.561,5.375-1.689v4.416c-1.817,1.018-3.799,1.529-5.945,1.529c-2.164,0-3.963-0.632-5.399-1.896
        c-0.45-0.377-0.821-0.809-1.116-1.285c-0.293-0.475-0.539-1.097-0.738-1.867c-0.198-0.771-0.297-2.233-0.297-4.398V31.11h-4.154
        V30.646z"/>
    <path fill="#f44336" d="M124.723,18.851c0.776,0,1.441,0.268,1.996,0.803c0.559,0.538,0.832,1.194,0.832,1.974
        c0,0.763-0.273,1.42-0.832,1.974c-0.555,0.552-1.22,0.831-1.996,0.831c-0.727,0-1.367-0.283-1.922-0.845
        c-0.555-0.561-0.83-1.215-0.83-1.96c0-0.728,0.275-1.372,0.83-1.934C123.355,19.133,123.996,18.851,124.723,18.851 M122.384,26.857
        h4.726v23.878h-4.726V26.857z"/>
    <path fill="#f44336" d="M137.736,26.857v3.036c2.113-2.334,4.51-3.502,7.189-3.502c1.487,0,2.874,0.383,4.155,1.154
        c1.278,0.771,2.253,1.825,2.918,3.167c0.665,1.34,1.004,3.465,1.004,6.371v13.652h-4.728V37.135c0-2.44-0.371-4.184-1.114-5.232
        c-0.748-1.043-1.99-1.566-3.738-1.566c-2.233,0-4.127,1.115-5.687,3.344v17.056h-4.825V26.857H137.736z"/>
    <path fill="#f44336" d="M153.025,23.18h0.482v-1.273h0.289c0.37,0,0.512,0.13,0.893,0.806l0.265,0.468h0.591l-0.363-0.583
        c-0.25-0.402-0.438-0.659-0.697-0.75V21.83c0.509-0.027,0.856-0.377,0.856-0.861c0-0.326-0.251-0.786-0.991-0.786h-1.324V23.18
        L153.025,23.18z M153.509,21.492v-0.901h0.778c0.318,0,0.537,0.174,0.537,0.446c0,0.312-0.25,0.455-0.619,0.455H153.509z
         M156.576,21.635c0,1.288-1.047,2.332-2.335,2.332c-1.285,0-2.323-1.044-2.323-2.332c0-1.287,1.038-2.323,2.323-2.323
        C155.529,19.312,156.576,20.349,156.576,21.635 M157.035,21.635c0-1.542-1.249-2.785-2.794-2.785c-1.543,0-2.784,1.242-2.784,2.785
        c0,1.544,1.241,2.794,2.784,2.794C155.786,24.43,157.035,23.18,157.035,21.635"/>
</symbol>
<symbol id="turnitin-logo__icon" viewBox="0 0 70 70">
    <path fill="#2e8aca" d="M7.209,32.32c3.504-8.264,5.432-17.369,5.432-26.911h32.818c0,15.398-3.419,29.998-9.54,43.082H23.4
        L7.209,32.32z M23.4,44.916H33.93c4.854-11.077,7.728-23.135,8.178-35.892L16.15,9.026c-0.396,8.232-2.16,16.005-5.074,23.294
        L23.4,44.916z"/>
    <path fill="#f44336" d="M45.164,13.252c5.904-1.187,12.288,0.569,14.682,3.535c5.246,6.498,0.062,22.07-13.787,33.257
        C33.288,60.354,18.002,64.325,13.17,58.33c-3.335-4.137-0.884-12.333,3.405-16.65l6.825,6.812v-16.17H7.211l6.792,6.797
        c-5.733,5.751-8.364,15.27-3.757,21.477c1.413,1.904,3.583,3.039,6.104,3.615c7.584,1.734,19.519-2.541,30.051-11.043
        C61.479,40.989,67.902,24.78,61.48,16.824C58.25,12.823,52.268,11.78,45.164,13.252"/>
</symbol>
<symbol id="icon-facebook" viewBox="0 0 1024 1024">
    <title>Facebook Icon</title>
    <path d="M587.7,342.7h153.2L723.1,512H587.7v491.3H384.4V512H283.1V342.7h101.4v-102c0-72.3,17.1-127.1,51.3-164.3
    s90.4-55.7,168.7-55.7h135.3V190h-84.7c-15.5,0-27.9,1.3-37.3,3.9c-9.3,2.6-16.1,7.3-20.3,14c-4.2,6.8-6.9,13.6-8,20.6
    s-1.8,16.8-1.8,29.5V342.7L587.7,342.7z"/>
</symbol>
<symbol id="icon-twitter" viewBox="300 400 1024 1024">
    <title>Twitter Icon</title>
    <path d="M1286.1,603.2c-36.2,16.1-75.1,26.9-115.9,31.8
        c41.7-25,73.7-64.5,88.7-111.7c-39,23.1-82.2,39.9-128.2,49c-36.8-39.2-89.3-63.7-147.3-63.7c-111.4,0-201.8,90.4-201.8,201.8
        c0,15.8,1.8,31.2,5.2,46c-167.7-8.4-316.4-88.8-416-210.9c-17.4,29.8-27.3,64.5-27.3,101.5c0,70,35.6,131.8,89.8,168
        c-33.1-1-64.2-10.1-91.4-25.2c0,0.8,0,1.7,0,2.5c0,97.8,69.6,179.3,161.9,197.9c-16.9,4.6-34.8,7.1-53.2,7.1c-13,0-25.6-1.3-38-3.6
        c25.7,80.2,100.2,138.5,188.5,140.1c-69.1,54.1-156.1,86.4-250.6,86.4c-16.3,0-32.4-1-48.1-2.8c89.3,57.3,195.4,90.7,309.4,90.7
        c371.2,0,574.2-307.5,574.2-574.2c0-8.7-0.2-17.5-0.6-26.1C1224.9,679.2,1259.1,643.7,1286.1,603.2L1286.1,603.2z"/>
</symbol>
<symbol id="icon-linkedin" viewBox="0 0 1024 1024">
    <title>LinkedIn Icon</title>
    <path d="M33.2,160.7c0-30.8,10.8-56.2,32.4-76.3s49.6-30,84.1-30c33.9,0,61.3,9.9,82.3,29.6c21.6,20.3,32.4,46.8,32.4,79.5
    c0,29.6-10.5,54.2-31.4,73.9c-21.6,20.3-49.9,30.5-85,30.5h-0.9c-33.9,0-61.3-10.2-82.3-30.5S33.2,191.6,33.2,160.7z M45.2,969.6
    V352.1h205.2v617.5H45.2z M364.1,969.6h205.2V624.8c0-21.6,2.5-38.2,7.4-49.9c8.6-21,21.7-38.7,39.3-53.2
    c17.6-14.5,39.6-21.7,66.1-21.7c69,0,103.5,46.5,103.5,139.6v330h205.2v-354c0-91.2-21.6-160.4-64.7-207.5
    c-43.1-47.1-100.1-70.7-171-70.7c-79.5,0-141.4,34.2-185.8,102.6v1.8h-0.9l0.9-1.8v-87.8H364.1c1.2,19.7,1.8,81,1.8,183.9
    S365.3,783.5,364.1,969.6z"/>
</symbol>
<symbol id="icon-google-plus" viewBox="0 0 1024 1024">
    <title>Google Plus Icon</title>
    <path d="M440.3,128.6c26,21.2,80.3,65.5,80.3,150c0,82.3-47.4,121.1-95.1,157.7c-14.8,14.6-31.8,30-31.8,54.5
        c0,24.5,17,37.9,29.3,47.9l40.8,31.1c49.8,41,95.1,79,95.1,155.7c0,104.5-103,210-297.7,210C97.2,935.5,18,858.8,18,776.5
        c0-39.9,20.3-96.6,87.1-135.6c70.1-42.1,165.4-47.9,216.1-51.2c-15.9-20.1-34-41.2-34-75.6c0-19,5.7-30,11.2-43.4
        c-12.4,1.1-24.9,2.2-36.2,2.2c-120,0-187.9-87.8-187.9-174.4c0-51.2,23.8-107.8,72.6-148.9c64.6-52,141.6-60.9,202.7-60.9h233.1
        l-72.3,39.9H440.3z M359.8,622.2c-9-1.1-14.8-1.1-26-1.1c-10.1,0-71.2,2.2-118.9,17.6c-24.9,8.8-97.3,35.5-97.3,114.5
        s78.1,135.6,199.1,135.6c108.7,0,166.3-51.2,166.3-120C483.1,712.1,445.8,682.1,359.8,622.2 M392.7,410.9
        c26-25.6,28.2-61.1,28.2-81.2c0-80.1-48.7-204.4-142.7-204.4c-29.3,0-61.1,14.3-79.2,36.6c-19.2,23.4-24.9,53.4-24.9,82.3
        c0,74.5,44.1,197.8,141.6,197.8C344,442.2,374.4,428.7,392.7,410.9"/>
    <polygon points="1006,261.4 833.3,261.4 833.3,88.9 794.3,88.9 794.3,261.4 618.5,261.4 618.5,300.6 794.3,300.6 794.3,479
        833.3,479 833.3,300.6 1006,300.6    "/>
</symbol>
<symbol id="icon-ra-lightbulb" viewBox="0 0 45 45">
    <title>Lightbulb Icon</title>
    <path style="fill:#D4D6D9;" d="M22.6,39.75c1.4,0,2.7-0.5,3.5-1.3c0.1-0.1,0-0.4-0.2-0.4h-6.6c-0.2,0-0.3,0.3-0.2,0.4
      C19.9,39.25,21.1,39.75,22.6,39.75z"></path>
    <path style="fill:#D4D6D9;" d="M27.9,34.85H17.2c-0.5,0-1,0.5-1,1.1s0.4,1.1,1,1.1h10.7c0.5,0,0.9-0.5,0.9-1.1
      C28.9,35.35,28.5,34.85,27.9,34.85z"></path>
    <path style="fill:#D4D6D9;" d="M27.9,31.85H17.2c-0.5,0-1,0.5-1,1.1s0.4,1.1,1,1.1h10.7c0.5,0,0.9-0.5,0.9-1.1
      C28.9,32.25,28.5,31.85,27.9,31.85z"></path>
    <path style="fill:#FFC96C;" d="M21.7,5.35c-6,0.4-10.8,5.4-10.8,11.4c0,4.3,3,7.4,5,10.8c0.3,0.5,0.5,1.3,0.6,2
      c0.1,0.6,0.7,1.1,1.3,1.1h0.9h7.6h0.2c0.9,0,1.6-0.6,1.8-1.4c0.1-0.6,0.3-1.3,0.5-1.6c2.3-3.9,5.8-7.3,4.9-12.4
      C32.9,9.25,27.6,4.95,21.7,5.35"></path>
    <path style="fill:#FFFFFF;" d="M15.7,20.65c-0.2,0-0.5-0.1-0.6-0.4c-0.1-0.2-2.8-5,1.6-9.7c0.3-0.3,0.7-0.3,1,0s0.3,0.7,0,1
      c-3.6,3.9-1.5,7.8-1.4,7.9c0.2,0.3,0.1,0.8-0.2,1C15.9,20.55,15.8,20.65,15.7,20.65z"></path>
    <path style="fill:#FDB93B;" d="M22.9,5.25c6.2,0,11.2,5.1,11.2,11.5c0,4.3-2.9,7.4-4.9,10.8c-0.2,0.3-0.3,0.8-0.5,1.4
      c-0.2,1-1.1,1.7-2.2,1.7h-3.7"></path>
</symbol>
<symbol id="icon-ra-binoculars" viewBox="25 33 60 45" >
    <title>Binoculars Icon</title>
    <path style="fill:#795DA8;" d="M76.05,48.115l0.021,0.003l-6.387-5.599
      c-0.476-0.418-1.052-0.724-1.67-0.887c-2.348-0.622-3.521-0.755-3.521-0.755c-3.981-6.79-8.766-0.849-8.766-0.849h-3.675
      c-3.483-6.451-8.791,0.849-8.791,0.849l-2.154,0.509c-3.978,0.849-8.628,6.732-8.628,6.732l0.058-0.006
      c-2.22,1.986-3.621,4.832-3.621,8.005c0,6,4.98,10.865,11.123,10.865s11.123-4.864,11.123-10.865c0-0.829-0.104-1.632-0.283-2.408
      c0.979,0.632,2.151,1.002,3.412,1.002c1.261,0,2.433-0.37,3.412-1.002c-0.18,0.776-0.283,1.579-0.283,2.408
      c0,6,4.98,10.865,11.123,10.865s11.123-4.864,11.123-10.865C79.667,52.945,78.268,50.101,76.05,48.115z"></path>
    <ellipse style="fill:#957BB7;" cx="40.027" cy="56.218" rx="11.216" ry="10.955"></ellipse>
    <ellipse style="fill:#957BB7;" cx="68.655" cy="56.218" rx="11.216" ry="10.955"></ellipse>
    <ellipse style="fill:#FFFFFF;" cx="54.341" cy="49.803" rx="2.318" ry="2.264"></ellipse>
    <path style="fill:#FFFFFF;" d="M47.173,55.085c0.628,3.895-2.096,7.55-6.083,8.163c-3.988,0.613-7.729-2.047-8.357-5.942
      s2.096-7.55,6.083-8.163C42.804,48.53,46.545,51.19,47.173,55.085z"></path>
    <path style="fill:#FFFFFF;" d="M75.981,55.085c0.628,3.895-2.096,7.55-6.083,8.163c-3.988,0.613-7.729-2.047-8.357-5.942
      c-0.628-3.895,2.096-7.55,6.083-8.163C71.611,48.53,75.353,51.19,75.981,55.085z"></path>
    <path style="fill:#C0C2C6;" d="M36.337,59.828c-0.287,0-0.567-0.108-0.727-0.304c-0.143-0.174-3.437-4.326,1.982-8.401
      c0.33-0.249,0.868-0.251,1.203-0.006c0.335,0.244,0.338,0.644,0.008,0.892c-4.489,3.376-1.853,6.72-1.739,6.861
      c0.242,0.298,0.114,0.686-0.287,0.866C36.64,59.798,36.487,59.828,36.337,59.828z"></path>
    <path style="fill:#C0C2C6;" d="M64.911,60.1c-0.295,0-0.582-0.111-0.746-0.312c-0.147-0.179-3.53-4.442,2.035-8.626
      c0.339-0.255,0.891-0.258,1.236-0.006c0.344,0.251,0.347,0.661,0.009,0.916c-4.61,3.466-1.903,6.901-1.785,7.045
      c0.249,0.306,0.117,0.705-0.295,0.889C65.221,60.07,65.065,60.1,64.911,60.1z"></path>
</symbol>
<symbol id="icon-ra-masks" viewBox="32.5 33 45 45">
    <title>Drama Masks Icon</title>
    <path style="fill:#C1C2C6;" d="M60.35,41.305c-3.2-1.4-11.5-5.5-22.2-0.1c-0.4,0.2-0.9,0.2-0.9,0.6v12.3c0,0-0.1,12.2,12.7,13l0,0
    c0.1,0,0.9-0.1,2-0.4c-1.9-2.6-2.6-5.6-2.8-7.4c-2.1,0-4.5,0.2-7.1,0.7c0,0,0.2-5.1,6.6-6.1c0,0,0.1,0,0.4,0v-10.5
    c0-0.5,0.5-0.9,1.1-0.7c4,1.4,7.9,1.9,11.4,2v-2.8C61.45,41.505,60.85,41.505,60.35,41.305z"></path>
    <path style="fill:#60A5D8;" d="M71.75,44.405c-3,1.1-12,3.7-21.8-0.1c-0.4-0.2-0.9,0.2-0.9,0.7v13.4c0,0-0.1,13.3,12.5,14.1l0,0
    c0.5,0,10.6-1,11.2-13.8v-13.6C72.75,44.605,72.25,44.205,71.75,44.405z M61.55,67.905c0,0-5.9,0.9-7.7-6.2c0,0,6.1,1.5,14,0
    C67.85,61.705,67.65,66.905,61.55,67.905z"></path>
    <path style="fill:#4493D0;" d="M60.85,46.305c0.2,1.5,0,16.1,0,16.1l0,0l6.9-0.7l0,0c-0.1,0.4-0.9,6.3-6.9,6.2l0,0l0.2,4.5l0,0
    c0.5,0,9.6-0.7,11.5-12.2l0,0l0.1-14.5l0,0c0-0.1,0-1.6-1.1-1.3C71.75,44.405,65.05,46.605,60.85,46.305z"></path>
</symbol>
<symbol id="icon-ra-magnifying-glass" viewBox="32.5 33 45 45">
    <title>Magnifying Glass Icon</title>
    <path style="fill:#F2695F;" d="M72.856,70.563l-2.039,2.033c-0.748,0.746-1.96,0.744-2.706-0.004L57.349,61.797
    c-0.746-0.748-0.744-1.96,0.004-2.706l2.039-2.033c0.748-0.746,1.96-0.744,2.706,0.004L72.86,67.857
    C73.606,68.605,73.604,69.817,72.856,70.563z"></path>
    <path style="fill:#EF4538;" d="M71.973,71.443l-1.938,1.933c-0.316,0.315-0.782,0.361-1.041,0.101L56.466,60.912
    c-0.259-0.259-0.212-0.725,0.104-1.04l1.938-1.933"></path>
    <circle style="fill:#F2695F;" cx="51.171" cy="50.75" r="14.587"></circle>
    <path style="fill:#FFFFFF;" d="M61.518,49.28c0.894,5.542-3.096,10.76-8.913,11.655c-5.816,0.895-11.256-2.872-12.15-8.414
    s3.096-10.76,8.913-11.655S60.624,43.738,61.518,49.28z"></path>
    <path style="fill:#D4D6D9;" d="M45.81,56.271c-0.299,0-0.591-0.153-0.757-0.429c-0.149-0.246-3.58-6.107,2.064-11.861
    c0.344-0.351,0.904-0.355,1.253-0.009c0.349,0.345,0.352,0.909,0.009,1.259c-4.676,4.766-1.931,9.488-1.811,9.687
    c0.253,0.421,0.119,0.969-0.299,1.223C46.125,56.229,45.966,56.271,45.81,56.271z"></path>
</symbol>
<symbol id="icon-ra-signal-check-bars" viewBox="0 0 110 62">
    <title>Signal Check Indicator Bars</title>
    <path class="bar-one" d="M40.55,56.1c-1.32,1.32-1.3,3.46,0.03,4.77c1.33,1.31,3.48,1.3,4.79-0.03c5.28-5.31,13.93-5.37,19.28-0.12
      c0.67,0.65,1.54,0.98,2.4,0.97c0.87-0.01,1.73-0.34,2.39-1c1.32-1.32,1.3-3.46-0.03-4.77C61.41,48.07,48.46,48.14,40.55,56.1z"></path>
    <path class="bar-two" d="M29.72,45.4c-1.32,1.32-1.3,3.46,0.03,4.77c1.33,1.31,3.48,1.3,4.79-0.03c11.22-11.29,29.58-11.4,40.93-0.24
      c0.67,0.65,1.54,0.98,2.4,0.97c0.87-0.01,1.73-0.34,2.39-1c1.32-1.32,1.3-3.46-0.03-4.77C66.23,31.33,43.57,31.47,29.72,45.4z"></path>
    <path class="bar-three" d="M91.54,33.81c-20.28-19.92-53.07-19.72-73.1,0.44c-1.32,1.32-1.3,3.46,0.03,4.77c1.33,1.31,3.48,1.3,4.8-0.03
      c17.4-17.51,45.89-17.68,63.51-0.38c0.67,0.65,1.54,0.98,2.4,0.97c0.87-0.01,1.73-0.34,2.39-1C92.88,37.25,92.87,35.11,91.54,33.81z
      "></path>
    <path class="bar-four" d="M100.68,27.39c-0.85,0-1.7-0.31-2.37-0.93C86.52,15.61,71.19,9.63,55.15,9.63c-15.86,0-31.06,5.86-42.79,16.5
      c-1.43,1.3-3.65,1.19-4.94-0.24c-1.3-1.43-1.19-3.65,0.24-4.94C20.68,9.13,37.55,2.63,55.15,2.63c17.81,0,34.82,6.64,47.91,18.69
      c1.42,1.31,1.51,3.52,0.2,4.95C102.57,27.01,101.63,27.39,100.68,27.39z"></path>
</symbol>
<symbol id="icon-ra-red-flag" viewBox="0 0 20 20">
    <title>Red Flag Icon</title>
    <path style="fill:#F2695F;" d="M4.419,1.973v9.546c0,0,8.977-4.559,7.884,0.285
      c0,0,5.319-1.663,6.364-1.425V0.976c0,0-4.56,0.523-6.032,1.282C12.636,2.257,13.491-1.684,4.419,1.973z"></path>
    <path style="fill:#F2695F;" d="M2.495,0.263c0.643,0,1.164,0.521,1.164,1.164v17.146
      c0,0.643-0.521,1.164-1.164,1.164c-0.643,0-1.164-0.521-1.164-1.164V1.427C1.332,0.784,1.853,0.263,2.495,0.263z"></path>
</symbol>
<symbol id="icon-ra-organization" viewBox="0 0 45 45">
    <title>Analysis and Organization Icon</title>
    <path style="fill-rule:evenodd;clip-rule:evenodd;fill:#439f47;" d="M11.7,28.3c1.5,0,2.9,0.6,3.9,1.6l10.1-7.3
        c-0.5-0.9-0.8-2-0.8-3.1c0-0.7,0.1-1.3,0.3-1.9l-10-4.4c-0.8,1-2.1,1.7-3.5,1.7c-2.5,0-4.5-2-4.5-4.5c0-2.5,2-4.5,4.5-4.5
        c2.5,0,4.5,2,4.5,4.5c0,0.4,0,0.7-0.1,1l10,4.4c1.2-1.9,3.3-3.1,5.7-3.1c3.7,0,6.8,3,6.8,6.8c0,3.8-3,6.8-6.8,6.8
        c-1.9,0-3.7-0.8-4.9-2.1l-10.1,7.3c0.4,0.7,0.6,1.6,0.6,2.4c0,3.1-2.5,5.6-5.6,5.6c-3.1,0-5.6-2.5-5.6-5.6S8.6,28.3,11.7,28.3z"/>
    <path style="fill:#439f47;" d="M5.7,33.9c0-3.3,2.7-6,6-6c1.5,0,2.8,0.5,3.9,1.5l9.5-6.9c-0.4-0.9-0.6-1.9-0.6-3
        c0-0.6,0.1-1.1,0.2-1.7l-9.4-4.2c-0.9,1-2.2,1.6-3.6,1.6c-2.7,0-4.9-2.2-4.9-4.9c0-2.7,2.2-4.9,4.9-4.9c2.7,0,4.9,2.2,4.9,4.9
        c0,0.3,0,0.5-0.1,0.8l9.4,4.1c1.4-1.9,3.5-3,5.9-3c4,0,7.2,3.2,7.2,7.2c0,4-3.2,7.2-7.2,7.2c-1.9,0-3.6-0.7-5-2l-9.5,6.9
        c0.3,0.7,0.5,1.5,0.5,2.3c0,3.3-2.7,6-6,6C8.4,39.9,5.7,37.2,5.7,33.9z M27.2,23.8c1.2,1.3,2.9,2,4.6,2c3.5,0,6.4-2.9,6.4-6.4
        c0-3.5-2.9-6.4-6.4-6.4c-2.2,0-4.2,1.1-5.4,2.9l-0.2,0.3l-10.7-4.7l0.1-0.3c0.1-0.3,0.1-0.6,0.1-0.9c0-2.2-1.8-4.1-4.1-4.1
        c-2.2,0-4.1,1.8-4.1,4.1c0,2.2,1.8,4.1,4.1,4.1c1.3,0,2.4-0.6,3.2-1.6l0.2-0.3l10.7,4.7l-0.1,0.3c-0.2,0.6-0.3,1.2-0.3,1.8
        c0,1,0.2,2,0.7,2.9l0.2,0.3l-10.7,7.8l-0.2-0.2c-1-1-2.3-1.5-3.6-1.5c-2.9,0-5.2,2.3-5.2,5.2c0,2.9,2.3,5.2,5.2,5.2
        s5.2-2.3,5.2-5.2c0-0.8-0.2-1.5-0.5-2.3l-0.2-0.3l10.7-7.8L27.2,23.8z"/>
    <circle style="fill-rule:evenodd;clip-rule:evenodd;fill:#68b26b;" cx="32.5" cy="19.2" r="6.9"/>
    <path style="fill:#FFFFFF;" d="M28.4,22.8c-0.2,0-0.3-0.1-0.4-0.2c-0.1-0.1-2.1-3.5,1.2-6.8c0.2-0.2,0.5-0.2,0.7,0
        c0.2,0.2,0.2,0.5,0,0.7c-2.7,2.7-1.1,5.5-1,5.6c0.1,0.2,0.1,0.6-0.2,0.7C28.5,22.7,28.5,22.8,28.4,22.8z"/>
</symbol>
</defs>
</svg>